<svg xmlns="http://www.w3.org/2000/svg" viewBox="0 0 71.26 55.64"><defs><style>.cls-1{fill:#ee3d59;}.cls-1,.cls-2,.cls-3{fill-rule:evenodd;}.cls-2{fill:#72be44;}.cls-3{fill:#404041;}</style></defs><title>Melon</title><g id="Layer_2" data-name="Layer 2"><g id="Layer_2-2" data-name="Layer 2"><path class="cls-1" d="M8.4,3.39c.73.44,1.73,1,2.92,1.62a.86.86,0,0,0,.13.38c.11.21.33.74.51.84l0,.06.07,0,0,0h0a1.48,1.48,0,0,0,0-.47,3.17,3.17,0,0,0,0-.43c2.71,1.41,6.27,3.16,9.94,4.9h0c7.43,3.54,15.3,7.08,17.37,7.84.56.2,3.93,1.41,5.91,2.35-.05.21.12.32.39.45,0-.17,0-.14-.07-.3h0c.73.36,1.2.67,1.13.84-.6,1.37-.49,2.91,1.71,3.08a1.65,1.65,0,0,0,2.45,1.74c0,1,1.94,1.65,2.9.82,1.62,1.63,2.69.81,3.53-.8a71.37,71.37,0,0,1,8.37,4.39s0,0,0,.05h0s.09,0,.12,0c.32.25.48.43.4.52-.89,1-1.89,2-3,3.14-.1-.25-.39-.23-.61-.09h0a.3.3,0,0,0,.37.33c-.76.76-1.57,1.54-2.42,2.32-.06-.06-.13-.1-.2,0h0c.06.08.06.09.1.11-4.32,4-9.74,8.18-15.61,10.7l0,0,0,.07c-.35.15-.69.29-1,.42a.11.11,0,0,0-.09,0c-.77.3-1.56.57-2.35.8a32.51,32.51,0,0,1-8.34,1.36l-.08-.12h0c-.08.06-.12.09-.11.13-.69,0-1.38,0-2.06,0,0,0,0,0-.06,0s-.1.06-.05,0h0s.17,0,.08,0,0,0,0,0a26.56,26.56,0,0,1-12.83-3.85c.07-.13.05-.07.06-.22h0c-.24-.05-.26,0-.2.13-.45-.28-.9-.58-1.34-.9a.83.83,0,0,0,.09-.28c0-.08-.05-.76-.46,0a25.74,25.74,0,0,1-6.62-7.44.61.61,0,0,1,0-.14,3.17,3.17,0,0,0,0-.43,1.17,1.17,0,0,0-.43-.79c-.12.08-.18.12-.2.2-.19-.36-.38-.73-.56-1.11a18.09,18.09,0,0,1-1.31-4l.08.07c0-.19,0-.16-.11-.29h0v.05c-1.45-6.85-1.12-17.16.55-24.15l.06,0a.37.37,0,0,0,0-.14A27.55,27.55,0,0,1,8.4,3.39ZM65.64,30.7ZM27.18,21h0s0,0,0,0v0Zm6-5.09h0v0Zm-.2-.1h0s0,0,0,0v0Zm-7.72,3.75h0s0,0,0,0v0ZM30.44,22h0s0,0,0,0v0Zm0,4.69h0s0,0,0,0h0s0,0,0,0Zm-5.66-1.9h0v0h0s0,0,0,0Zm.37-4.33h0s0,0,0,0h0s0,0,0,0Zm5-.18Zm-7.44,4h0c.08,0-.06-.13,0,0Zm11.51-2h0c.08,0-.06-.14,0,0Zm-2.58,3.26h0c-.07.13,0,0,0,0s0-.13,0,0Zm-7.82-1.25h0c-.08.13,0,0,0,0s0-.13,0,0Zm-.59-2.29h0c-.07.08.08,0,.08,0s0,0,0,0,0,0-.06,0Zm3.08,3.2h0c-.05.1,0,0,0,0s-.06.09,0,0-.05-.09-.08,0Zm-1.77-3.23h0c-.06.1,0,0,0,0s-.05.09,0,0-.05-.1-.08,0Zm7.58.36h0c0,.09,0,0,.05,0s-.06.09,0,0-.05-.1-.08,0Zm-5.19,4h0c0,.08-.06,0,.06,0s0-.19-.06,0Zm-.82-.4h0c-.13,0,.05.05.05.05s0-.08-.05-.05ZM23.65,25h0c-.13,0,.05.05.05.06s0-.08-.05-.06Zm1.26-5h0c-.13,0,.05.05.05.05s0-.08-.05-.05Zm3.77,2.89h0c0,.13.06.05.06.05s0-.16-.06-.05Zm.84-.6h0c-.09.11,0,.06.07,0s0-.08-.07,0Zm1.88-1.94-.08.14c.22,0,.18,0,.08-.14Zm-2.19,6.41-.08.14.1.05c0-.15.05-.07,0-.19Zm3-.6-.08.14.11.05c0-.15,0-.06,0-.19ZM29.3,23.23h0c0,.1,0,.11.11.17l.05-.09-.16-.08Zm-4.38.2h0c0,.1,0,.11.1.17l.05-.09-.15-.08Zm2.21-1.95-.05.09.15.08.05-.1-.15-.07Zm2.53,4.84-.07.14.1.05.08-.14-.11-.05Zm3.07-10.09-.08.14c.2,0,0,.08.23-.07l-.15-.07ZM29.64,26.6h0c0,.1,0,.11.11.17l.07-.14a.42.42,0,0,0-.18,0ZM31,23.79h0c-.1.19-.09.15.05.27,0-.19,0-.12-.05-.27ZM25.7,19.42h0c.05.16.16.1.26,0-.25-.1-.07-.1-.26,0Zm6.87,8h0c-.21,0-.07-.06-.2.14.24.05.2.05.2-.14ZM32,15.81h0c-.08.16,0,.3.21.1l-.21-.1ZM30.55,27.34h0s.1.07,0-.1,0-.1-.1-.06,0,.1,0,.1c.06.17.1.06.11.06Zm.56-.21-.1.19.15.08c.08-.19.11-.13-.05-.27Zm-7.18-2.34h0c0,.17,0,.18.24.29,0-.19,0-.17-.24-.29Zm7.81-1.38h0c0,.2-.09.2,0,.35.17-.12.11-.18,0-.35Zm-.37,2.25h0a.3.3,0,0,0,.14.36c0-.17,0-.23-.14-.36Zm-2.51-5h0c0,.08,0,.12.11.17s.12,0,.17-.09c-.2-.1-.11-.08-.28-.08Zm3.27-5.25h0c-.21,0-.07-.07-.2.13.25.1.06.1.27,0l-.07-.13Zm-2,12h0c-.1.19-.1.14-.1.3.11,0,.11.05.18-.09s0-.13-.08-.21ZM30,14.26h0c0,.11,0,.16.08.19s.1,0,.18-.06,0-.17-.26-.13Zm-2.15,7.52h0c-.23-.19-.23-.18-.3.09.16.06.08.1.3-.09Zm.93.44h0c0,.16,0,.13.14.24.08-.06.23-.12.11-.27s-.16,0-.25,0Zm3.54.18c-.07.12,0,.17.06.26.14-.1.07.09.17-.33-.13,0-.16-.06-.23.07Zm-3.67,4.8h0c-.11.22-.11.24.06.38.13-.09,0,.07.13-.11s-.07-.2-.19-.27Zm-1.41-1.1h0c-.06.1,0,.07-.05.21l.15.07c.17-.31.18-.19,0-.4-.13.09,0-.06-.12.12Zm-4.52-3.19h0c-.08.19,0,.25.31.5,0-.21-.15-.37-.31-.5Zm9.17,5.15h0c-.09.17-.07.12-.07.26.2.1.19.1.33-.14-.18-.13,0-.06-.26-.12Zm-3.34-3.22h0V25c.12,0,.06,0,.16,0s0,0,.17,0L29,24.8l-.23-.07c-.1,0-.12,0-.18.11Zm.85.47h0c0,.09,0,.09,0,.17l.08,0,0,0c0,.07,0,.1.05.15s.25,0,.23-.31h0a.25.25,0,0,0-.11-.24c-.14.09,0-.09-.16.16Zm-1.14-1.38h0c0,.05.43.42.74.07l-.46-.23c-.17.09-.14,0-.28.16Zm-3.16.83h0c-.06.11,0,.18,0,.31l.26.13c.24.11.69-.32.1-.67l-.23.07a.3.3,0,0,0-.15.16Zm7.47,1.67h0c-.08.13-.08.38,0,.43.37.18.75-.58.4-.87-.19.18-.24.08-.43.44Zm-7.84-2.8h0c-.44.31-.35.78-.05.93a2,2,0,0,0,.34,0,.81.81,0,0,0,.15-.57.46.46,0,0,0-.44-.35ZM9.54,12.45h0s0,0,0,0v0ZM11,6.83h0v0ZM10.4,8.44h0s0,0,0,0h0v0ZM10.59,10h0s0,0,0,0h0s0,0,0,0ZM8.48,6h0c-.08.13,0,0,0,0s0-.13,0,0Zm-.63,9.64h0c-.07.13,0,0,0,0s0-.13,0,0Zm4.8-9.46h0c-.13,0,0,.06,0,.06s0-.08,0-.06ZM10.07,4.43h0c0,.1,0,.1.11.17,0-.14,0-.07-.11-.17ZM8.23,9.94h0c-.12.14-.16.1,0,.24L8.34,10l-.11-.05ZM6.67,12.5h0c-.16.11-.15.15,0,.27,0-.21,0-.09,0-.27ZM9.24,13h0c-.2-.07-.2-.07-.31.09.26.07.19.08.31-.09Zm1.61-8.09a.6.6,0,0,0,.13.6c.08-.32,0-.15-.06-.3s0-.1-.07-.3ZM7.53,9.35l.06.22a1,1,0,0,0,.67.2c.14-.26.14-.52-.32-.74-.25-.12-.33.14-.41.32Zm3.87,4.14h0Zm-4.69-.32h0Zm.7-1.79s0,.16.08,0,.13.07,0,0,0-.11-.06,0Zm4.77.65c0,.05.06.16.08,0s.13.06,0,0,0-.11-.06,0Zm-5,13.14h0L7,25.06v0L6.75,25l-.27.1.07.26.1,0,.1.05.11.05c.23-.12.23-.06.3-.32Zm-1,1s-.18-.05,0,.14c0-.11.08,0,0-.12s0,0-.06,0Zm6.49-14.67a2,2,0,0,0,.25-.59l-.1-.05a1,1,0,0,0-.15.64Zm8.16,31.62-.06,0,0,.07,0,0,.08-.08-.08.08Zm-4.5-9.53,0,.06.07,0-.05,0-.1-.08.1.08ZM9.51,21.63h0s0,0,0,0v0ZM34.26,36h0s0,0,0,0v0ZM22.78,15.48h0s0,0,0,0v0Zm1.91-1.75h0c0-.14,0,0,0,0v0ZM10.41,35.11h0s0,0,0,0v0Zm-1.56-13h0s0,0,0,0v0ZM7,32.15H7s0,0,0,0v0Zm5.22-11.22h0v0Zm7.5,9.32s0,0,0,0v0Zm4.37,1.65h0s0,0,0,0v0Zm-6.46-2.06h0s0,0,0,0v0Zm4.88-16.39h0s0,0,0,0v0Zm-1,21.87h0s0,0,0,0v0ZM18.87,22.78h0s0,0,0,0v0ZM12.63,36.24h0v0ZM9.86,26.67h0v0ZM20.67,37.82h0s0,0,0,0v0Zm.73,4h0s0,0,0,0v0Zm11-8.73h0s0,0,0,0v0ZM27,35.27h0s0,0,0,0v0Zm-.14,1.84h0v0Zm.47.22h0s0,0,0,0v0Zm-7.47,1.48h0s0,0,0,0v0ZM21.6,10.16h0v0ZM13.68,41.32h0v0ZM25,16.27h0s0,0,0,0v0ZM22.35,42.08h0s0,0,0,0v0ZM10.93,38.87h0s0,0,0,0v0ZM27.18,32h0a0,0,0,0,1,0,0v0Zm-16.1-1.05h0s0,0,0,0v0ZM18.89,46.5h0v0ZM12.55,26.13h0s0,0,0,0v0ZM24.9,17.69h0v0Zm-.2-.1h0s0,0,0,0v0Zm-.37,13.54h0s0,0,0,0v0Zm1,3.46h0v0Zm-1.58,5.52h0s0,0,0,0v0ZM26,37.37h0v0ZM7.57,33.14h0s0,0,0,0v0ZM8.74,21.37h0s0,0,0,0v0ZM24.3,34.43h0s0,0,0,0v0ZM22,42.69h0s0,0,0,0v0ZM17.44,30.51h0v0Zm9,5.06h0s0,0,0,0v0ZM9.81,11.85h0s0,0,0,0v0ZM17,21.34h0v0Zm-1.7,21h0s0,0,0,0v0Zm13.05-8.49h0s0,0,0,0v0ZM14.72,31.16h0v0Zm-2.27-17h0s0,0,0,0v0ZM22.67,35.89h0s0,0,0,0v0ZM18.9,35h0s0,0,0,0v0Zm6.18-1.51h0s0,0,0,0v0Zm-2.95-9.73h0v0Zm.18,12h0s0,0,0,0v0Zm2-1.53h0v0ZM11.41,12.51h0s0,0,0,0h0v0ZM10.07,29h0s0,0,0,0h0v0Zm6.48,3.5h0v0h0s0,0,0,0Zm-3-4.9h0s0,0,0,0h0v0ZM25.89,40.18h0s0,0,0,0h0s0,0,0,0Zm6.54-8.56h0s0,0,0,0h0s0,0,0,0Zm-18-3.28h0v0h0s0,0,0,0Zm-2.58-4.63h0s0,0,0,0h0s0,0,0,0ZM29,43.36h0s0,0,0,0h0v0Zm-16-7.26h0s0,0,0,0h0s0,0,0,0Zm-.48,3.44h0s0,0,0,0h0s0,0,0,0Zm-2.76-10h0s0,0,0,0h0s0,0,0,0ZM24,32.45h0s0,0,0,0h0s0,0,0,0ZM10.59,13.3h0v0h0s0,0,0,0ZM23.81,44.18h0s0,0,0,0h0s0,0,0,0ZM16,30.45h0s0,0,0,0h0v0ZM8.49,24.87h0s0,0,0,0h0s0,0,0,0Zm13.66,3.54h0v0h0s0,0,0,0Zm.48,2h0v0s0,0,0,0ZM8.31,25.08h0s0,0,0,0h0s0,0,0,0Zm-.6,1.85h0v0h0s0,0,0,0ZM29.3,39.84h0s0,0,0,0h0s0,0,0,0Zm-17.91,1h0s0,0,0,0h0v0ZM16.5,26.5h0a0,0,0,0,0,0,0h0v0Zm7.38,14.66h0s0,0,0,0h0v0Zm-8.5-5.89h0s0,0,0,0h0s0,0,0,0Zm3.19-6.34h0s0,0,0,0h0s0,0,0,0ZM8.39,33h0s0,0,0,0h0s0,0,0,0Zm8.47-10.78h0v0h0s0,0,0,0Zm-6.68,8.51h0v0h0s0,0,0,0Zm1.9-19.92h0s0,0,0,0h0s0,0,0,0ZM17.81,46.1h0v0h0s0,0,0,0ZM21.89,22h0a0,0,0,0,0,0,0h0Zm-11,4.27,0,.06.07,0-.05,0,0-.06-.07,0,0,0ZM26.22,15.84l.06,0,0-.07,0,.05-.07,0,0,.07,0-.05Zm-16,14.5h0c0-.14,0-.06-.1-.17,0,.14,0,.07.1.17l0,.06.07,0,0,0Zm-.92-3,0-.05-.07,0,.05,0,0,.06.07,0,0,0Zm12.82,13h0a.81.81,0,0,0,.49.66c.06-.3-.2-.43-.49-.66l0-.06-.08,0,.06,0ZM14.44,26h0c.07,0-.07-.14,0,0ZM26,24h0c.07,0-.07-.14,0,0ZM11,26h0c.07,0-.06-.14,0,0Zm-1.4,5.79h0c-.07.13,0,0,0,0s0-.13,0,0ZM19.86,44.67h0c-.07.13,0,0,0,0s0-.14,0,0Zm3.66-1h0c-.08.13,0,0,0,0s0-.13,0,0Zm8-12.66h0c-.07.13,0,0,0,0s0-.13,0,0Zm-8.16-3.78h0c-.07.13,0,0,0,0s0-.14,0,0Zm.79,14.5h0c-.07.13,0,0,0,0s0-.13,0,0Zm5.58-16h0c-.07.13,0,0,0,0s0-.14,0,0ZM10.88,30.6h0c-.08.13,0,0,0,0s0-.13,0,0ZM19.31,35h0c-.07.13,0,0,0,0s0-.14,0,0ZM11.78,11.92h0c-.07.14,0,0,0,0s0-.13,0,0Zm1.56,8.6h0c-.07.14,0,0,0,0s0-.13,0,0ZM8.2,29.06h0c-.07.13,0,0,0,0s0-.13,0,0Zm19.35,8h0c-.07.14,0,0,0,0s0-.13,0,0ZM11.69,9.92h0c-.07.13,0,0,0,0s0-.13,0,0Zm21.37,18h0c-.07.13,0,0,0,0s0-.13,0,0ZM32,33.18h0c-.07.13,0,0,0,0s0-.13,0,0ZM8.64,24.35c-.07.13,0,0,0,0s0-.14,0,0Zm19,9.6h0c-.08.14,0,0,0,0s0-.06,0-.06l.05-.09c-.22,0-.18,0-.09.12Zm-.07,10.91h0c-.07.13,0,0,0,0s0-.13,0,0ZM15.55,26h0c-.07.14,0,0,0,0s0-.13,0,0Zm9.63,5.39h0c-.07.13,0,0,0,0s0-.13,0,0Zm-.46.49h0c-.07.13,0,0,0,0s0-.13,0,0Zm-.46-.23h0c-.07.14,0,0,0,0s0-.13,0,0ZM23.9,35.9h0c-.07.13,0,0,0,0s0-.13,0,0ZM12.12,38.78h0c-.07.13,0,0,0,0s0-.13,0,0Zm1.79-23.93h0c-.07.14,0,0,0,0s0-.13,0,0ZM9.18,21.77h0c-.08.13,0,0,0,0s0-.13,0,0ZM22,35.85h0c-.07.14,0,0,0,0s0-.13,0,0Zm-5,5.92h0c-.07.13,0,0,0,0s0-.14,0,0ZM8.53,29.4h0c-.07.13,0,0,0,0s0-.14,0,0Zm18.13,4.52h0c-.07.13,0,0,0,0s0-.13,0,0Zm4.33.69h0c-.07.14,0,0,0,0s0-.13,0,0Zm-16.67-5h0c-.07.13,0,0,0,0s0-.14,0,0ZM6.16,28h0c-.07.14,0,0,0,0s0-.13,0,0Zm1.7.83h0c-.07.13,0,0,0,0s0-.13,0,0Zm21.87-1h0c-.07.14,0,0,0,0s0-.13,0,0Zm-1.26,6.86h0c-.06.09,0,0,.05,0h0c.13-.09,0,0,0,0s-.05,0-.06,0Zm-4,6.2h0c-.06.07,0,0,.07,0h0c.13-.09,0,0,0,0s-.05,0-.06,0ZM24.14,34h0c-.06.09.08,0,.08,0s0,0,0,0-.05,0-.06,0ZM27,43.37h0c-.06.08.08,0,.08,0s0,0,0,0-.06,0-.07,0ZM20.46,47h0c-.06.08.08,0,.08,0s0,0,0,0-.06,0-.07,0Zm8.49-15h0c-.06.09.08,0,.08,0s0,0,0,0-.06,0-.07,0ZM15,23.68h0c-.06.09.08.05.08.05s0,0,0,0,0,0-.06,0Zm-3.71,1h0c-.05.1,0,0,.05,0s-.06.09,0,0-.05-.09-.08,0ZM13.47,26h0c-.05.1,0,0,0,0s-.06.09,0,0-.05-.09-.08,0Zm4.57.91h0c-.05.09,0,0,.05,0s-.06.09,0,0-.05-.1-.08,0Zm9.33,5.59h0c-.05.1,0,0,.05,0s-.06.09,0,0-.05-.1-.08,0Zm1,12.73h0c-.05.09,0,0,.05,0s-.06.09,0,0-.05-.1-.08,0ZM22.73,37h0c-.05.1,0,0,.05,0s-.06.09,0,0,0-.1-.08,0Zm3.79-.77h0c-.06.09,0,0,0,0s0,.09,0,0-.05-.09-.08,0ZM10.2,26.89h0c0,.09,0,0,.05,0s-.06.09,0,0,0-.1-.08,0ZM22.73,44h0c-.06.1,0,0,0,0s-.05.09,0,0,0-.09-.07,0ZM21.22,30.15h0c0,.1,0,0,.05,0s-.05.09,0,0-.05-.09-.08,0Zm-4.95-6.5h0c-.05.1,0,0,.05.05s-.06.08,0,0-.05-.09-.08,0Zm0,5h0c-.06.1,0,0,0,0s-.05.09,0,0-.05-.1-.08,0ZM13.38,27h0c-.06.09,0,0,0,0s0,.07,0,0l0,0c-.09.09.13.07,0,0s-.1.06-.05,0,.09-.05.11,0,0,0,0,0-.05-.09-.08,0ZM8.11,25.82h0c0,.09,0,0,.05,0s-.05.09,0,0,0-.09-.08,0ZM26.53,37.41h0c-.05.09,0,0,0,0s-.06.09,0,0-.05-.1-.08,0ZM13.76,32.47h0c0,.1,0,0,.05,0s-.06.09,0,0-.05-.09-.08,0Zm-6-2.66h0c0,.1,0,0,0,0s0,.09,0,0,0-.09-.08,0ZM23.85,24h0c-.05.1,0,0,0,0s-.06.09,0,0-.05-.09-.08,0ZM25,37.64h0c-.05.09,0,0,.05,0s-.05.09,0,0-.05-.09-.08,0ZM11.91,11.92h0c-.05.09,0,0,.05,0s-.06.08,0,0-.05-.09-.08,0ZM10.77,35.65h0c0,.09,0,0,.05,0s-.06.09,0,0,0-.09-.08,0Zm9.56,4.27h0c0,.09,0,0,.05,0s-.06.08,0,0-.05-.09-.08,0ZM7.17,23.34h0c0,.1,0,0,0,0s-.06.09,0,0,0-.09-.08,0ZM25.68,34h0c-.06.09,0,0,0,0s0,.09,0,0-.05-.1-.07,0ZM11.83,25.78h0c0,.08-.06,0,.05,0h0s0-.15-.06,0Zm7,20.32h0c0,.07-.06,0,.05,0h0s0-.15-.06,0Zm-6.62-17h0c0,.08-.06,0,.05.05h0s0-.15-.06,0ZM6.84,26.26h0c0,.08-.06,0,0,0s0-.18,0,0ZM7.65,28h0c0,.08-.06,0,0,.05s0-.18,0-.05ZM25.89,33.3h0c0,.08-.06,0,.06.05s0-.18-.06-.05ZM12.07,21.45h0c0,.08-.06,0,0,.05s0-.19,0-.05ZM18.67,28h0c0,.08-.06,0,0,.05s0-.19,0-.05Zm-.83-.4h0c-.13,0,.05.05.05.06s0-.08-.05-.06ZM9.92,38.08h0c-.12,0,.05.05.05.06s0-.08-.05-.06ZM26.41,14.15h0c-.13,0,0,.06,0,.06s0-.08,0-.06Zm-.78,18.67h0c-.13,0,0,.06.05.06s0-.08-.05-.06Zm-.23.07h0c-.13,0,0,0,.05,0s0-.07-.05,0ZM13.11,23h0c-.13,0,0,.05,0,.05s0-.07,0-.05Zm7.66,20.31h0c-.13,0,.05.06.05.06s0-.08-.05-.06Zm.79-5.6h0c-.13,0,.05.05.05.05s0-.08-.05-.05Zm-1.23.11h0c-.13,0,.05,0,.05.06s0-.08-.05-.06ZM13.54,37h0c-.13,0,0,.05,0,.05s0-.08,0-.05ZM8.75,33.6h0c-.13,0,.05,0,.05,0s0-.07-.05,0Zm16.64,5.81h0c-.12,0,.05.05.05.05s0-.08-.05-.05Zm.7-9h0c-.13,0,.05.05.05.05s0-.07-.05-.05ZM8.72,22.49h0c-.13,0,0,.06,0,.06s0-.08,0-.06Zm15.87-8h0c-.13,0,.05.05.05.05s0-.08-.05-.05ZM24,44.4h0c-.13,0,0,.05,0,.05s0-.08,0-.05ZM11.18,36.54h0c-.13,0,0,.06,0,.06s0-.08,0-.06ZM29,43.79h0c-.13,0,0,.06,0,.06s0-.08,0-.06Zm-9.58-1.46h0c-.13,0,.05.05.05.05s0-.08-.05-.05Zm7.66-5.13h0c-.13,0,0,0,.05,0s0-.08-.05-.06ZM12.83,39.55h0c-.13,0,.05.06.05.06s0-.08-.05-.06Zm9-26.69h0c-.13,0,0,.05,0,.05s0-.07,0-.05ZM14.42,34.27h0c-.13,0,.05.06.05.06s0-.08-.05-.06Zm10.79,7.18h0c-.13,0,0,.06.05.06s0-.08-.05-.06Zm3.13,2.13h0a.27.27,0,0,0-.06-.43c-.12,0-.11,0-.23.22s0,.16.08.22a.23.23,0,0,0,.16,0h0c.08.07.06,0,0,0Zm-13.65-24h0c-.13,0,0,.05,0,.05s0-.08,0-.05Zm1.48,7.89h0c-.13,0,0,.06,0,.06s0-.08,0-.06Zm3.89,3.24h0c-.13,0,0,.05.05.05s0-.07-.05-.05Zm-12.44-3h0c-.13,0,0,.06,0,.06s0-.08,0-.06Zm18,11h0c-.13,0,.05.06.05.06s0-.08-.05-.06Zm.48-3.2h0c-.13,0,.05.05.05.05s0-.08-.05-.05Zm-1.16,1.09h0c-.13,0,0,0,0,.06s0-.08,0-.06Zm-9.56-9.84h0c-.13,0,0,.05,0,.05s0-.08,0-.05Zm-.79,4.34c-.13,0,0,.06,0,.06s0-.08,0-.06Zm9.94,6.25h0c-.13,0,.05.06.05.06s0-.08-.05-.06Zm-8.08-8.72c-.13,0,0,.05,0,.05s0-.07,0-.05Zm9.44,1.74c-.13,0,.05.05.05.05s0-.08-.05-.05ZM23,15.6h0c-.13,0,.05.06.05.06s0-.08-.05-.06ZM14,32.83h0c-.13,0,.05.06.05.06s0-.08-.05-.06ZM26.16,15.58h0c-.12,0,.05.05.05.05s0-.08-.05-.05Zm-.54-.44h0c-.13,0,.05,0,.05,0s0-.08-.05,0ZM19.67,38.47h0c-.12,0,0,.05,0,.05s0-.07,0-.05Zm6.51-2.24h0c-.12,0,.05.06.05.06s0-.08-.05-.06Zm-6,.89h0c-.13,0,0,.06,0,.06s0-.08,0-.06Zm8.26-10.45h0c-.13,0,.05,0,.05,0s0-.08-.05,0Zm-.06,15h0c-.13,0,0,.05,0,.05s0-.08,0-.05ZM21.83,36h0c-.13,0,0,0,0,0s0-.08,0,0ZM16.6,21.69h0c-.13,0,0,0,0,.06s0-.08,0-.06ZM20.45,34.1h0c-.13,0,.05.06.05.06s0-.08-.05-.06Zm2.21.36h0c-.13,0,0,.06,0,.06s0-.08,0-.06Zm-13-20.18h0c-.13,0,.05.06.05.06s0-.08-.05-.06ZM20.37,24.59h0c0,.12.06,0,.06,0s0-.15-.06,0Zm5.52,6.28h0c0,.13.07.05.07.05s0-.16-.07-.05Zm-6.62,6h0c0,.13.07.05.07.05s0-.16-.07-.05Zm7.21,4.94h0c-.09.11,0,.06.07,0s0-.08-.07,0ZM11.11,28.22h0c-.09.11,0,.05.07,0s0-.07-.07,0Zm6.09,3.12h0c-.09.11,0,.05.07,0s0-.07-.07,0Zm9.18-17.5h0c-.09.11,0,.06.07,0s0-.08-.07,0ZM22.73,36.51h0c-.09.11,0,.06.07,0s0-.08-.07,0ZM21.21,24h0c-.09.11,0,.05.07,0s0-.07-.07,0ZM8,26c-.09.11,0,.06.08,0s0-.07-.08,0ZM25.35,40.46h0c-.16,0-.06-.05-.2,0,.16,0,.07.05.2,0Zm-.67-.57h-.12l-.08,0c.28.1.06.1.2,0ZM31.76,29h0c-.16,0-.07,0-.17.09.14,0,.06,0,.17-.09ZM19.2,39.25h0c-.16,0-.07,0-.17.09.15,0,.07,0,.18-.09ZM12.37,25.86l0,.05.16.08,0,0-.15-.08Zm6,3.85-.07.14,0,0,.07-.14,0,0Zm-4.66-9.37,0,.05.15.07,0,0-.16-.08Zm5-7.31,0,.05.15.07,0-.05L18.71,13ZM15.11,28.5h0c0,.09,0,.1.1.17,0-.14,0-.07-.1-.17Zm.22-1.15h0c0,.1,0,.11.1.17,0-.14,0-.06-.1-.17Zm-1.65,2.24h0c0,.09,0,.1.11.17,0-.14,0-.07-.11-.17Zm-4-4.31h0c0,.1,0,.11.1.17,0-.14,0-.06-.1-.17ZM16.63,10h0c0,.1,0,.11.11.17,0-.14,0-.06-.11-.17Zm-4.3,22.84h0c-.06.14,0,.1,0,.2,0-.16.05-.07,0-.2ZM26,34.58h0c-.26-.12-.09-.07-.2,0h.12l.08,0ZM12.8,28.8h0c-.06.14,0,.13.1.22l-.1-.22Zm-6-.94h0c-.06.16.07.11.15.08l-.15-.08ZM23.09,22l-.08.14c.22,0,.18.05.08-.14ZM25.5,46.36h0c0-.2,0-.17-.16-.08l.16.08ZM19.22,34h0c-.25-.1-.06-.09-.26,0,.11,0,0,0,.14,0s.06,0,.12,0ZM28.6,46.74l0,0,.2.09,0,0-.21-.1Zm-4.43-9.65h0c0,.06-.07.06.06,0s0,0,.09-.08c-.11,0,0,0-.12,0s0,0,0,.06ZM16,34.45h0c0,.1,0,.11.16.2,0-.2.07-.06-.16-.2Zm-.79-3.18h0c-.16,0-.06-.05-.2,0l.15.07.05-.09Zm-8-2.76h0c-.16,0-.06-.05-.2,0l.15.08.05-.1Zm13.71-.06-.08.14.11.05c0-.15,0-.06,0-.19Zm-8.29-6.8,0,.09c.16,0,.07.05.2,0l-.15-.08Zm11.33,6.2-.07.14L24,28c0-.15.05-.06,0-.19Zm3.75,8.22-.05.1c.17,0,.07,0,.21,0l-.16-.08ZM12.78,26.42l-.07.14.1.05c0-.15,0-.06,0-.19ZM11,26.33l0,.1c.17,0,.07,0,.21,0L11,26.33Zm-.87,7.82-.07.15.1.05c0-.16.05-.07,0-.2Zm3-13.42-.07.14.1.05c0-.15.05-.06,0-.19ZM26.65,30.3l-.07.14.1,0c0-.16.05-.07,0-.19ZM13.07,19.68l-.05.1.16.07c0-.14,0-.06-.11-.17ZM13.24,38l-.07.14c.14,0,.06,0,.17-.09l-.1,0Zm15.68,4.6-.08.14c.11,0,.1,0,.12,0h0c.21.1.2.1.33-.14-.18-.13,0-.06-.25-.12a.74.74,0,0,0-.08.15l0,0Zm-.49-11.17-.07.15c.15,0,.07,0,.18-.1l-.11-.05ZM14.31,20.16l-.05.1.15.07c0-.14,0-.06-.1-.17Zm11.32-3.83-.05.09.16.08c0-.14,0-.07-.11-.17ZM8.49,22.08l-.05.1.15.07c0-.14,0-.06-.1-.17ZM29,45.51h0c.05.06-.07.05.06,0s0,0,.09-.08c-.3-.06-.15,0-.15,0Zm-1.06-12h0c0,.06-.06.05.06,0s0,0,.09-.07c-.3-.07-.15,0-.15,0Zm1.67,8.83h0c.05.07-.07.06.06,0s0,0,.09-.08c-.3-.06-.15,0-.15,0Zm-2.74-3.6h0c-.16,0-.07,0-.17.09l.1.05.07-.14Zm3.73-6.08h0c.09.26.1,0,.08,0s0,0-.05,0-.05,0,0,0ZM25.55,12.85h0c0,.09,0,.1.1.17l.05-.1-.15-.07ZM12.78,26.18h0c0,.1,0,.11.1.17l0-.09-.15-.08ZM21,25h0c0,.1,0,.1.11.17l0-.1L21,25Zm-4.38.2h0c0,.09,0,.1.11.16l.05-.09-.16-.07Zm3.55,8h0c-.31-.15-.14-.1-.26,0a.33.33,0,0,1,.24.05l0-.05ZM23.9,31h0c0-.09.07-.2-.05-.16s0,.1.06.16Zm-11-1.71h0c0,.16,0,.13.13.24,0-.17,0-.11-.13-.24Zm12.65,9.51h0c0,.16,0,.13.13.24,0-.17,0-.11-.13-.24Zm5.71-3.91L31.2,35c.11,0,0,0,.14,0a.37.37,0,0,0,.12,0l-.21-.1ZM13,24h0c0,.11,0,.13.15.19,0-.2.08-.06-.15-.19ZM7.18,32.54h0c0,.11,0,.13.16.19,0-.2.07-.06-.16-.19Zm.3-8.33h0c-.06.13,0,.13.08.21,0-.16.06-.1-.08-.21Zm17.15-8.9h0c-.06.13,0,.13.08.21,0-.16.06-.1-.07-.21ZM21.5,44.75l-.05.1.16.07.05-.09-.16-.08ZM18.82,23.24l-.05.1.15.07,0-.09-.15-.08Zm3.34,13-.05.09.16.08.05-.1-.16-.07ZM18.55,14.43l-.05.1.15.07.05-.09-.15-.08Zm8.33,21.84-.05.09.15.08.05-.09-.15-.08Zm-5.52-8.19-.08.14.1.05.08-.14-.1-.05Zm5.67,1-.08.14.1.05.08-.14-.1-.05ZM20.86,30l-.07.14.1.05L21,30,20.86,30Zm-9.58-7.55h0c.05.25-.09.05.08.22l.08-.14-.16-.08ZM8.45,26.52l0,.09.16.07,0-.09-.16-.07Zm6.6,2.29-.05.1.15.07,0-.09-.15-.08Zm13.12,6.61h0c-.16,0-.07,0-.18.09l.16.07c0-.1,0-.08,0-.16ZM24.42,18l-.07.14c.19,0,0,.08.23-.06L24.42,18ZM17.14,29.31l-.08.14.16.07c0-.18.08,0-.08-.21Zm4.19-.94h0c0,.09,0,.1.11.17l.07-.15c-.11,0-.09,0-.18,0Zm4.24,5.49h0c-.25-.1-.06-.1-.26,0l.21.1.05-.09ZM7,26H7c-.25-.1-.06-.09-.26,0l.21.1L7,26ZM20.41,32.6l-.05.09.21.11c0-.21.07-.07-.16-.2ZM31.8,27.69l-.1.19c.22,0,.07.07.21-.14l-.11,0Zm-8.69,5.57-.05.09c.24.1.06.09.25,0l-.2-.1Zm3.7,1.67h0c0,.14.17.05.26,0-.25-.1-.07-.09-.26,0Zm-16.62-21h0c-.06.19.11.14.21.1-.1-.11,0-.06-.21-.1Zm4.14,8.61h0c-.07.14,0,.15.13.24,0-.17,0-.11-.13-.24Zm-4.07,5.2h0c-.07.14,0,.15.13.24,0-.17,0-.11-.13-.24ZM22.17,39.38h0c-.07.15,0,.16.13.25,0-.17,0-.11-.13-.25Zm-9-5.06h0c-.08.14,0,.15.13.24,0-.17,0-.11-.13-.24Zm-2.95,2.36h0c-.1.18-.09.15,0,.27,0-.19,0-.12,0-.27ZM22.64,25.56h0c-.1.18-.09.15.05.26,0-.19,0-.11-.05-.26Zm10.92,6.37-.07.14.15.07c0-.16.06-.1-.08-.21ZM27.2,35.3l-.08.14c.18,0,.12.06.23-.06l-.15-.08Zm-7.77-5.67-.08.15.15.07c0-.16.06-.1-.07-.22Zm9.63-2.38c-.17,0-.12-.05-.23.07l.15.07.08-.14ZM13,19.51l.08.1.2-.14c-.2,0-.12,0-.28,0ZM15.13,23h0c-.07.14,0,.13.08.22l.07-.14L15.13,23ZM30.61,37.51h0c-.07.14,0,.13.08.22l.07-.14-.15-.08ZM9.13,35.2h0c-.09.2-.06.17,0,.31.08-.19.06-.16,0-.31ZM7.25,29.37l0,.1.21.1,0-.1-.21-.1Zm3-1.22-.05.1.2.1,0-.1-.2-.1Zm2.29,12.78h0c0,.17,0,.19.15.32,0-.18.07,0,0-.19s0,0-.12-.13ZM19,38.86h0c0,.16.17.1.26,0-.25-.1-.07-.1-.26,0ZM17.39,21.18h0c.05.17.17.11.26,0-.25-.1-.07-.09-.26,0Zm13,7.41h0c0,.16.17.1.26,0-.25-.1-.07-.1-.26,0Zm-2.69,7.17h0c.05.17.17.11.26,0-.25-.1-.06-.09-.26,0Zm-3.85,1.63h0c-.21,0-.14-.06-.25.12.28,0,.11.1.25-.12Zm.45-8.2h0c-.21,0-.07-.06-.2.14.24.05.2.06.2-.14Zm-1.43,2.69h0c-.17.11-.18.09,0,.24.1-.23.1-.06,0-.24Zm1.74.37h0c-.13.1-.1.14,0,.29.12-.25.12-.12,0-.29ZM12.18,22.09h0c0,.19,0,.17.1.29,0-.18.05-.16-.1-.29ZM24.9,45.18h0c.05-.24,0-.28-.21-.1l.21.1Zm-1.7-7.25h0c-.21,0-.14-.06-.25.11.21.05.14.07.25-.11ZM21.66,42h0c-.21,0-.14-.06-.26.12.21,0,.14.06.26-.12Zm4.8-8.58h0a.4.4,0,0,0-.36.06c.25.1.06.07.22,0s.05,0,.14-.09ZM13.33,19.69h0c0,.19-.1.1.13.24l.08-.14-.21-.1ZM26,45.27h0c0,.24.06.09.23.29,0-.13.06-.07-.05-.18s-.11-.07-.18-.11ZM10.9,38h0c-.09.17,0,.3.2.1l-.2-.1ZM23.67,17.57h0c-.08.17,0,.3.21.1l-.21-.1ZM9.61,24.71h0a.72.72,0,0,1-.07.26c.11,0,.11,0,.18-.1s0-.11-.11-.16ZM22.24,29.1h0s.1.08,0-.09,0-.1-.1-.07,0,.11,0,.11c.07.17.11.05.11.05Zm-6.68-7h0a.34.34,0,0,0-.05.23l.23-.08c-.09-.1,0-.06-.18-.15ZM22,40.24h0c-.17,0-.2,0-.33.13.2.05.21.05.33-.13Zm5.35-2.62h0c-.16.1-.15.14.06.26,0-.19,0-.12-.06-.26ZM13.13,20.07h0c-.16.1-.15.14,0,.26,0-.19,0-.12,0-.26Zm1.66,2.46h0c0,.16,0,.14.18.27,0-.2,0-.25-.18-.27ZM7,27.7H7c0-.11.13-.34-.05-.28s0,.2.05.28Zm19.87,8.86h0c.07.44.1.25.13.24.19-.06,0-.18-.13-.24Zm-14-3.92h0a1.54,1.54,0,0,0,.19.12c.15,0,.1,0,.15,0-.18-.14-.15-.22-.34-.11ZM8.15,21.5h0c.11.11.19.28.23.12s0-.21-.23-.12ZM22.8,28.9l-.1.19.15.07c.08-.19.11-.13-.05-.26ZM12.51,33.34l-.16.15c.25.1.06.1.26,0,0-.14,0-.06-.1-.16Zm7.19,2.41h0c-.19,0-.24,0-.36.19.19,0,.24,0,.36-.19Zm-4.07-9.19h0c0,.17,0,.18.23.29,0-.2,0-.17-.23-.29ZM6,26.58H6c0,.15.11.14.23.17l0-.09c-.2-.1-.11-.07-.28-.08Zm17.41-1.41h0c-.05.2-.08.2,0,.36.17-.12.11-.18,0-.36Zm-.36,2.26h0a.29.29,0,0,0,.13.36.3.3,0,0,0-.13-.36Zm-2.52-5h0c0,.08,0,.13.11.17s.12,0,.18-.09c-.21-.09-.12-.07-.29-.08ZM26,16.07h0c-.05.11,0,.16.08.22s.11,0,.16,0c-.11-.13,0-.07-.24-.18Zm-2.14,1.1h0c-.21,0-.07-.06-.2.14.25.1.06.09.27,0l-.07-.14ZM21.47,33.89h0c-.24-.12-.17-.15-.33,0,.25.12.18.15.33,0ZM30,32.16h0c-.21,0-.14-.07-.25.11l.21.1,0-.21ZM10.24,13.36h0a.91.91,0,0,0,.28.19c0-.19,0-.17-.23-.29l0,.09Zm4.09,14.41h0a1.05,1.05,0,0,0,.28.19c0-.19,0-.17-.23-.29l-.05.1Zm11.24,15.3h0c0,.19,0,.17.2.22l.06-.09c-.14-.11-.1-.12-.26-.13Zm-.72-9.56-.05.09c.27.13.18.14.36.06-.18-.14-.09-.1-.31-.15Zm2.51,2.1h0a.32.32,0,0,0-.05.22c.14,0,0,0,.18,0l.07-.15-.2-.1ZM18,29.54h0c-.1.22-.06.21.13.36,0-.22,0-.2-.13-.36Zm-1-1.12a.32.32,0,0,0,.1.26c.14.12.08.07.21,0-.17-.13-.11-.15-.31-.27Zm-3-4.28h0c0,.2,0,.21.14.36.08-.21.07-.24-.14-.36Zm.35,3.12h0c-.1.17-.08.12-.08.26.34.07.24-.13.08-.26Zm7.44,1.95h0c-.1.19-.09.15-.1.31.11,0,.11,0,.18-.09s0-.13-.08-.22ZM10,35.48h0a.33.33,0,0,0,0,.22c.2,0,.13,0,.28,0-.1-.13,0-.07-.23-.18Zm17-1.38h0c0,.08.13.12.23.18a.33.33,0,0,0,.05-.22c-.2,0-.12,0-.28,0ZM21.71,16h0c0,.11,0,.16.08.19s.1,0,.18-.07,0-.17-.26-.12Zm-12,20.24h0c0,.06,0,.26.25.12,0,0,0-.29-.25-.12ZM7.54,25.18l.16.08c.11-.23.1-.19,0-.36-.14.1-.11.12-.15.28l-.23-.05c-.08.2-.06.16,0,.31l.21-.26Zm21,8.47h0c-.1.11-.11.06-.11.15s0,0,.08.14c.14-.1.08,0,.18-.21l-.15-.08ZM8.2,23.72h0c-.06.1-.1.19,0,.24s.07,0,.23.05c0-.17-.06-.15-.23-.29Zm2.25,2.22h0a1,1,0,0,0-.08.26l.16.08A1.54,1.54,0,0,0,10.6,26l-.15-.07ZM8.3,21h0c0,.13-.05.22.1.29h.13c0-.19,0-.16-.23-.29Zm11.27,2.56h0c-.24-.18-.24-.18-.31.09.16.07.09.11.31-.09Zm6.54,13.19h0c0,.08,0,.12.11.17s.14,0,.2-.14c-.27-.12-.13-.11-.31,0ZM23.22,15.51h0c-.08.37.31.68.15.24-.06-.16,0-.12-.15-.24ZM8.28,30.11h0c0,.11,0,.18.08.25s.15,0,.21-.05c-.11-.14-.08-.1-.29-.2Zm4.28-14.67h0c.08.18.17.43.41.32-.2-.16-.08-.16-.41-.32Zm3.17,5.71h0c0,.13.11.31.31.27,0-.13-.11-.31-.31-.27Zm15.7,18.6-.28-.12h0c-.2-.06-.12,0-.23,0a3.93,3.93,0,0,1,.49.18l.05-.09ZM9.51,24.06h0c-.19-.07-.25-.08-.24.06s.07.16.14.25a1.82,1.82,0,0,0,.1-.31ZM13.27,6.47h0c0,.24,0,.25.31.39l.05-.09a2.73,2.73,0,0,0-.36-.3ZM14.64,26.9h0l.14,0a.34.34,0,0,0-.33-.34.3.3,0,0,0,0,.13c-.07.19,0,.22.14.34a1.14,1.14,0,0,0,.06-.15Zm4.08-15.82h0c0,.2.11.35.26.48a.51.51,0,0,0-.26-.48Zm6.37,21.06h0a.48.48,0,0,0,0,.12c.2,0,.17.05.3-.09s-.16-.29-.3,0Zm-.48-15.71h0a.43.43,0,0,0,.29.43c.05-.26-.06-.26-.29-.43ZM27.78,34.1h0a.37.37,0,0,0,.18.5c0-.2,0-.35-.18-.5ZM20.5,24h0c0,.15,0,.13.13.24.09-.06.23-.13.11-.27s-.16,0-.24,0Zm3.53.17c-.06.13,0,.18.06.26.14-.1.07.09.17-.33-.13,0-.16-.06-.23.07Zm-8.4,14.13h0c-.06.09,0,.13.15.19a.94.94,0,0,0,.18-.21c-.21-.1-.12-.07-.28-.08l0,.1Zm9.73,2.13a.24.24,0,0,0,.08.1.42.42,0,0,0,.41,0c-.31-.15-.26-.18-.49-.06Zm-1.6-.86h0a.48.48,0,0,0,0,.12c.21,0,.36,0,.3-.21-.13,0-.23,0-.3.09Zm-5.33,2.58h0c-.26,0-.3,0-.49.18.19.07.15.07.3,0s.1,0,.19-.17Zm4.66-29.66h0c0,.21.05.21.28.32.13-.3,0-.26-.28-.32ZM21.16,38h0c-.11,0-.17.09-.22.19.2.09.11.07.28.08s.12-.18-.05-.27ZM10.84,24.83h0c0-.19.07-.11,0-.28-.16-.33-.44,0,0,.28ZM20.37,29h0c-.12.23-.12.24.05.39.13-.09,0,.06.13-.12s-.07-.2-.18-.27ZM25,43.47h0c0,.21,0,.26.32.38,0-.21-.06-.26-.32-.38ZM10.82,35.55c0-.12,0-.51-.16-.45s.05.36.16.45Zm-2-9.41h0c-.1.19,0,.21.16.31.07-.11.21-.19.07-.26s-.07,0-.23-.05ZM7.42,28.09c0-.12.14-.5-.11-.43-.09,0-.06.14,0,.23s0,.11.14.2Zm14.45,3.15h0a.35.35,0,0,0,0,.43c.14-.09,0,.06.13-.12s0-.23-.16-.31ZM19,27.86h0c-.06.1,0,.07-.05.21l.15.08c.17-.32.18-.2,0-.41-.13.1,0-.06-.12.12Zm-4.52-3.19h0c-.08.19,0,.26.31.51,0-.21-.15-.38-.31-.51Zm9.17,5.15h0c-.09.18-.07.12-.07.26.2.1.2.1.33-.13-.18-.14,0-.07-.26-.13ZM20.27,26.6h0a.48.48,0,0,0,0,.12c.12,0,.06,0,.17,0s0,0,.16,0l.08-.15-.24-.07c-.09,0-.12,0-.17.11Zm-6,8.18h0c0,.2,0,.13.13.32a1.37,1.37,0,0,0,.26.28.92.92,0,0,0-.39-.6Zm2.86-5.85h0c-.06.27.09.26.34.46,0-.16,0-.13-.07-.26a.73.73,0,0,0-.27-.2Zm4-1.86h0c-.05.09,0,.1,0,.17.31.11.39-.15.18-.33-.14.1,0-.08-.15.16Zm-6.25.3h0c0,.18,0,.16.1.29a1.51,1.51,0,0,0,.26.24.58.58,0,0,0-.36-.53Zm7.72,17.76h0a1.42,1.42,0,0,0,.41.2l.05-.1c-.24-.19-.25-.42-.46-.1ZM13.23,30.2h0a1,1,0,0,0-.08.26l.26.12c.08-.15.14-.23,0-.31l-.15-.07Zm6.92.14h0c-.08.14,0,.2.1.29s.34-.14,0-.41c-.14.1,0-.06-.13.12ZM27,45.73h0c.22.14.26.31.44,0a.81.81,0,0,0-.23-.17c-.11-.05-.15,0-.21.14ZM25.81,29.94h0c-.13-.06-.24.08-.31.22l.33.09c.08-.15.15-.22,0-.31Zm-15.66,2.5h0a.58.58,0,0,0,.19.62,2.16,2.16,0,0,0,0-.36c0-.16,0-.15-.19-.26Zm-1-3.1h0a.58.58,0,0,0,.1.53c.22-.14.21-.37-.1-.53Zm2.24-5.91h0c-.14.29-.06.38.16.56,0-.26.14-.38-.16-.56Zm11.79-9.54h0c0,.14-.05.2.1.29a.27.27,0,0,0,.27,0s0,0,0,0c-.06-.29-.16-.22-.41-.32Zm4.47,16.36h0a.19.19,0,0,0,.11.28c.35.18.13-.72-.11-.28ZM18.4,31.39h0a.47.47,0,0,0,.57.15c-.1-.27-.34-.27-.57-.15Zm3.35-19.68h0c0,.16,0,.16,0,.31s0,.14.24.25c.07-.27,0-.4-.28-.56ZM13.58,26.62c-.22-.11-.37.22,0,.43.07-.12.2-.32,0-.43Zm.71,2h0c-.12.26.06.38.36.53,0-.17,0-.15-.07-.3a.62.62,0,0,0-.29-.23ZM24.85,45.63c.06.3.4.37.62.42-.08-.4-.46-.36-.62-.42Zm-9.69-5.14h0c-.25-.12-.36.11-.41.28.21.08.21.07.38,0s.23-.14,0-.24ZM8.72,27.59h0c-.17-.08-.15.18-.13.28.05.35,0,.25.19.34l0-.21c0-.25.06-.33-.1-.41Zm4.67-2.18c-.12.24-.08.38.18.5h.13c.05-.23,0-.37-.31-.51Zm-1.63.86h0a.32.32,0,0,0,.11.41c.08,0,.16.05.2,0,.12-.23-.22-.57-.31-.39ZM8.67,22.71h0c-.05.13-.05.08,0,.32,0,.41.38.36.29,0,0-.15-.13-.22-.27-.32Zm9.81,21.52h0a.93.93,0,0,0-.47,0c-.73.17,0,.47.47,0Zm4.13-13.52h0c-.06.11,0,.15.08.21.31.15.39-.34.15-.43s-.1,0-.23.22ZM7.55,23.35c-.17.13.2,1.07.36.41a1.21,1.21,0,0,0-.13-.12c-.14-.16,0-.14-.15-.27s0,0-.08,0ZM28.23,34.26c-.06.12.12,0,0,.26s-.09,0-.09.22c.37,0,.15-.05.25-.24s.11,0,.28-.28c-.09-.07-.08,0-.13-.12a.34.34,0,0,0-.28.16Zm-16.74-.7h0c.45.36.23.27.41.49s.21-.39-.15-.6c-.17.14,0,0-.15,0s0,0-.11.08ZM27.5,35h0c.18.19.21.16.44.16l.18-.33-.26-.13a.86.86,0,0,1-.36.3ZM20,25.7h0s.43.41.74.06l-.46-.22c-.17.09-.14,0-.28.16Zm-8,3.75a1.08,1.08,0,0,0,0,.19.3.3,0,0,0,.11.17c.66.64.11-.83-.14-.36ZM24.88,46.06c-.08.2-.08,0,0,.21s.41.36.51.44c.1-.25.09,0-.07-.29a.58.58,0,0,1-.09-.26,1.34,1.34,0,0,1-.33-.1ZM13.57,20.7h0c-.09.16.37.35.49.41.11-.21.13-.12,0-.29s-.43-.3-.52-.12Zm-1.7,4h0c-.16.31.1.53.41.68a3.85,3.85,0,0,0,0-.5l-.36-.18Zm14.75,7.09h0a.17.17,0,0,0,.17.26c.3,0,.31-.29.36-.42-.29-.13-.18-.05-.43,0l-.1.19Zm-.11-.41c.3.31.4.11.54-.15A1.09,1.09,0,0,0,26.8,31l-.24,0a1.32,1.32,0,0,0,0,.33Zm-10-2.07c-.09.18.28.82.44.51.08-.15-.06-.48-.36-.65l-.08.14Zm.33,9h0a1.21,1.21,0,0,0-1.07.43.63.63,0,0,0,.6-.1l.47-.33ZM13.27,19.07a.37.37,0,0,0,.11.44c.33.31.36.26.43.19a.27.27,0,0,0,.07-.18c0-.08-.06-.12-.12-.2s-.35-.52-.49-.25Zm3.54,7.46h0c-.06.11,0,.17,0,.31l.25.12c.24.12.7-.31.1-.66l-.23.06a.29.29,0,0,0-.15.17ZM8.55,30.71h0c-.09.17-.1.19-.07.34.12.67.08.16.56.79a.42.42,0,0,0,.08-.18,1.29,1.29,0,0,0-.57-.95Zm15.73-2.52h0c-.07.14-.08.38,0,.43.38.19.75-.58.4-.87-.18.19-.24.08-.43.44Zm-.5-15.31a1.73,1.73,0,0,0,0,1.08c0,.17.24.58.37.33s-.26-1-.29-1.07c-.08-.26.07-.11-.06-.34Zm.31,3.06c-.06.28.13.42.35.13a1.07,1.07,0,0,0-.07-.77.89.89,0,0,0-.69,0c.29.36.46.29.55.47s-.07,0,.12.21ZM16.44,25.4h0a.52.52,0,0,0,0,.93,1.88,1.88,0,0,0,.33,0,.79.79,0,0,0,.15-.56.44.44,0,0,0-.44-.35Zm-3.8-10.22c0,.3-.1.11.16.23.07,0,.75.72,1.38.4v0c-.18-.38-1-.58-1.53-.6Zm9.43,22.2h0c0-.19,0,0,0-.16s0-.23-.12-.36c-.51-.65-.7-.25-.94-.07s-.28,0-.48.2a2.24,2.24,0,0,0,1.28.26c.24.12-.08.11.26.13Zm-11-17.91h0a.36.36,0,0,0,0,.35c.15.29.31.34.57.51s.24.14.24.25a.85.85,0,0,0,.15,0c.21-.05.2,0,.38,0,.09-.43-.72-1.2-1.25-1.11l-.08,0s0,0,0,0ZM39.69,48.69h0v0ZM29.53,44.56h0s0,0,0,0v0ZM26.92,48h0s0,0,0,0v0ZM37.8,45.73h0a0,0,0,0,0,0,0v0Zm-5.35,2.21h0v0Zm-.13,1.83h0s0,0,0,0v0Zm.46.23h0s0,0,0,0v0Zm-.16-5.36h0s0,0,0,0v0Zm-2.85-.85h0s0,0,0,0v0Zm1,3.47h0s0,0,0,0v0ZM31.4,50h0s0,0,0,0v0Zm-1.67-2.95h0s0,0,0,0v0Zm2.11,1.14h0s0,0,0,0v0Zm1.92-1.73h0v0Zm-5.65,2.06h0s0,0,0,0v0Zm2.41-2.45h0s0,0,0,0v0Zm-2.77,2.27h0s0,0,0,0v0Zm2-1.53h0s0,0,0,0v0Zm8.14-2.57h0s0,0,0,0h0v0Zm-8.42.84h0s0,0,0,0h0v0Zm-1.38-2h0s0,0,0,0h0s0,0,0,0Zm8.89.57h0c-.07.14,0,0,0,0s0-.13,0,0Zm-1.79-5.25h0c-.07.13,0,0,0,0s0-.13,0,0ZM33,49.74h0c-.07.13,0,0,0,0s0-.13,0,0Zm5.52-9.19h0c-.07.14,0,0,0,0s0-.13,0,0Zm-1.08,5.29h0c-.07.14,0,0,0,0s0-.13,0,0ZM33,46.62h0c-.07.13,0,0,0,0s0-.05,0-.06l0-.08c-.21,0-.18,0-.08.12ZM30.61,44h0c-.07.14,0,0,0,0s0-.13,0,0Zm-.45.49h0c-.07.14,0,0,0,0s0-.13,0,0Zm-.47-.22h0c-.07.13,0,0,0,0s0-.14,0,0Zm-.35,4.27h0c-.08.13,0,0,0,0s0-.14,0,0Zm-1.93,0h0c-.07.13,0,0,0,0s0-.13,0,0Zm4.69-1.94h0c-.07.14,0,0,0,0s0-.13,0,0Zm4.33.7h0c-.08.13,0,0,0,0s0-.13,0,0Zm-1.27-6.8h0c-.07.13,0,0,0,0s0-.13,0,0ZM33.9,47.34h0c-.07.09,0,0,.05,0h0c.13-.09,0,0,0,0s-.06,0-.07,0Zm-4.33-.68h0c-.06.09.08,0,.08,0s0,0,0,0-.06,0-.07,0Zm4.82-2h0c-.07.08.08,0,.08,0s0,0,0,0-.05,0-.06,0Zm-1.59.53h0c0,.1,0,0,.05,0s-.06.08,0,0-.05-.09-.08,0Zm-4.63,4.51h0c-.05.1,0,0,0,.05s-.06.08,0,0-.05-.09-.08,0ZM32,48.88h0c-.05.1,0,0,.05,0s-.06.09,0,0-.05-.1-.08,0Zm0,1.19h0c-.05.1,0,0,0,0s-.06.09,0,0S32,50,32,50.07Zm-.85-3.38h0c-.05.1,0,0,.05,0s-.06.09,0,0-.05-.09-.08,0Zm.21-.72h0c0,.08-.06,0,.06.05s0-.19-.06-.05Zm-.26-.48h0c-.12,0,.05,0,.05,0s0-.07-.05,0Zm-.23.06h0c-.12,0,.05.06.05.06s0-.08-.05-.06Zm.7-2.51h0c-.13,0,0,.06,0,.06s0-.08,0-.06Zm1,6.83h0c-.12,0,0,.05,0,.05s0-.07,0-.05Zm-1-1.74h0c-.13,0,0,.06,0,.06s0-.08,0-.06Zm-1.17,1.1h0c-.13,0,.05.05.05.05s0-.08-.05-.05Zm-.4.75h0c-.13,0,0,.05,0,.05s0-.07,0-.05Zm1.36-7c-.13,0,0,0,0,0s0-.07,0,0Zm.32,5.91h0c-.13,0,0,.05,0,.05s0-.08,0-.05Zm2.28-9.57h0c-.13,0,0,.05,0,.05s0-.07,0-.05Zm-6.64,9.35h0c-.13,0,0,0,0,.06s0-.08,0-.06Zm.83-1.55h0c-.13,0,.05,0,.05,0s0-.08-.05,0Zm3.24-3.59h0c0,.13.06,0,.06,0s0-.15-.06,0Zm-3.17,5.64h0c-.09.11,0,0,.08,0s0-.07-.08,0Zm9-7.54h0c-.16,0-.08,0-.18.1.15,0,.07,0,.18-.1Zm-5.8,5.61h0c-.27-.12-.1-.08-.21,0h.21Zm-1.8,2.51h0c.06.06-.06.05.06,0s0,0,.1-.08c-.12,0,0,0-.13,0s0,0,0,.06Zm-.22-9.24-.08.14.1.05c0-.15.05-.07,0-.19Zm3.75,8.22-.05.09c.16,0,.07.05.2,0l-.15-.07Zm-1-5.78L32,43.1l.11,0c0-.15,0-.06,0-.19Zm1.78,1.16-.08.14c.15,0,.07,0,.18-.09l-.1-.05Zm-.49,2h0c0,.07-.07.06.06,0s0,0,.09-.08c-.3-.06-.15,0-.15,0ZM36,45.29h0c.1.26.1,0,.09,0s0,0-.06,0,0,0,0,.06Zm-6.7-1.65h0c0-.09.07-.2-.06-.16s0,.09.06.16Zm7.35,3.88,0,.1c.11,0,0,0,.14,0s.07,0,.12,0l-.21-.1ZM27.6,48.9l-.05.1.15.07.05-.09-.15-.08Zm4.71,0-.05.09.15.08.05-.1-.15-.07Zm.15-7.16-.07.14.1,0,.07-.14-.1,0Zm1.15,6.3h0c-.16,0-.08,0-.18.1l.15.07a.36.36,0,0,0,0-.17ZM31,46.52h0c-.25-.09-.07-.09-.26,0l.21.1.05-.1Zm6.23-6.16-.1.19c.21,0,.06.07.2-.14l-.1,0Zm-8.7,5.56-.05.1c.25.09.06.09.26,0l-.21-.1Zm3.71,1.68h0c0,.14.16,0,.25,0-.25-.1-.06-.1-.25,0Zm6.75-3-.08.14.15.08c0-.16.06-.11-.07-.22ZM32.63,48l-.07.14c.17,0,.11,0,.23-.07L32.63,48Zm1.86-8h0c-.17-.05-.11-.06-.23.06l.16.08.07-.14Zm1.3,1.34h0c0,.16.16.1.25,0-.25-.1-.06-.09-.25,0ZM33.1,48.43h0c0,.16.16.1.26,0-.25-.1-.07-.1-.26,0Zm-3.85,1.63h0c-.21,0-.14-.06-.26.11.29,0,.11.1.26-.11Zm.45-8.2h0c-.22,0-.08-.06-.21.14.24,0,.2,0,.21-.14Zm-1.44,2.68h0c-.16.12-.17.09,0,.24.09-.23.09-.05,0-.24Zm1.75.38h0c-.13.1-.11.13,0,.28.12-.24.11-.11,0-.28Zm1.88,1.21h0c-.19-.05-.21,0-.36.06.26.09.06.07.22,0s.05,0,.14-.08Zm.4,3.09h0c.06.45.09.25.13.24s0-.18-.13-.24Zm-5.38-2.67h0c-.25-.11-.18-.14-.34,0,.25.11.18.15.34,0Zm8.53-1.73h0c-.21,0-.14-.06-.26.12l.22.1,0-.22Zm-5.15,1.36-.06.09c.27.13.18.14.36,0-.17-.14-.08-.09-.3-.14Zm2.5,2.1h0a.31.31,0,0,0,0,.21.62.62,0,0,1,.18,0l.08-.14-.21-.1Zm-.42-1.51h0c0,.08.12.12.23.17a.3.3,0,0,0,0-.21c-.21,0-.13,0-.28,0ZM34,46.31h0c-.09.11-.1.06-.1.16s0,0,.08.13c.13-.09.07,0,.18-.21L34,46.31ZM31.55,49.4h0c0,.07,0,.12.1.16s.15-.05.2-.13c-.26-.13-.12-.12-.3,0Zm-1-4.59h0v.12c.2,0,.17,0,.31-.09s-.17-.3-.31,0Zm4.37-6.6h0c0,.06,0,.1,0,.14s.24,0,.23-.3a.29.29,0,0,0-.28.16Zm-1.68,8.55h0a.39.39,0,0,0,.19.51.6.6,0,0,0-.19-.51Zm-2-4.15h0c-.13-.06-.23.08-.31.21l.34.1c.08-.15.14-.23,0-.31Zm1.85.3h0a.2.2,0,0,0,.1.29c.36.17.13-.73-.1-.29Zm.58,4c-.07.12.12,0,0,.25s-.09,0-.09.22c.37,0,.16,0,.26-.23s.11,0,.27-.28c-.08-.07-.07,0-.12-.12a.32.32,0,0,0-.29.16Zm-.73.71h0c.18.18.2.15.43.15l.18-.33-.26-.12a.9.9,0,0,1-.35.3Zm-.89-3.16h0c-.08.16,0,.27.18.26s.31-.28.36-.41c-.3-.14-.18-.06-.44,0l-.1.18Zm-.1-.4c.29.3.39.11.53-.16a1.39,1.39,0,0,0-.25-.23l-.24.06a1.24,1.24,0,0,0,0,.33Zm-2.24-3.22h0c-.07.13-.07.38,0,.43.38.18.75-.58.4-.88-.18.2-.23.09-.43.45Zm-2.2,9.19h0c0-.19,0,0,0-.16s0-.24-.11-.37c-.52-.64-.7-.24-.95-.07s-.28,0-.48.2a2.35,2.35,0,0,0,1.29.27c.23.11-.09.11.26.13ZM40.4,48.6h0Zm.68-1.51h0s0,0,0,0Zm2.67-6.36s0,0,0,0h0Zm-4.86,8.5s0,0,0,0h0Zm7-7.23s0,0,0,0h0s0,0,0,0ZM44,47.53c-.06.12.07,0,0,0s0-.15,0,0Zm-4.28-.12c-.06.12.08.05,0,0s0-.15,0,0Zm10.18-3.54c0,.06.06.16.08,0s.14.06,0,0,0-.11-.07,0Zm-9.32,2.18c-.1,0-.22-.07-.17.05s.1,0,.17-.05Zm8.14-.32c.2,0,.08,0,.25-.11-.22-.09-.25-.08-.25.11Zm-4.41,2c.13,0,0,0,.16,0a1.63,1.63,0,0,0,.17-.11c-.21,0-.19,0-.33.13Zm-2.6-1.32c.11.13.07.09.28.2,0-.12.06-.15-.08-.22s-.15,0-.2,0Zm.46-2.68c.23,0,.27,0,.41-.16-.25-.06-.28-.08-.41.16Zm-.28,3.18-.05.1a.5.5,0,0,0,.67.21c.7-.2.53-.77-.23-.63a.75.75,0,0,0-.39.32Zm9.84-12-.06,0,0,.07,0-.05.08-.09-.08.09Zm-4.5-9.54,0,.06.07,0,0,0-.1-.08.1.08ZM32.42,28.14Zm8.9-1.25h0s0,0,0,0v0ZM36.91,23.5h0s0,0,0,0v0ZM38,25.26h0s0,0,0,0v0Zm-2.75-1.51h0s0,0,0,0v0Zm2.69.18h0s0,0,0,0v0ZM44.1,41.68h0s0,0,0,0v0ZM43.54,28h0v0Zm-5.82,8.13h0s0,0,0,0v0ZM35.5,24h0s0,0,0,0v0ZM40,39h0v0ZM51.58,29.6h0s0,0,0,0v0Zm.73,4h0s0,0,0,0v0Zm5.62-6.52h0s0,0,0,0v0Zm-.14,1.83v0Zm.47.22h0s0,0,0,0v0Zm-7.47,1.48h0a0,0,0,0,0,0,0v0Zm-2,8.48h0s0,0,0,0v0Zm-4.15-6h0v0Zm8.67.76h0s0,0,0,0v0Zm-13.39-.61h0s0,0,0,0v0Zm2-2.6h0s0,0,0,0v0ZM42,22.71h0v0Zm7.82,15.57h0v0Zm4.89-6.39h0s0,0,0,0v0Zm2.18-2.74h0s0,0,0,0v0Zm-25.35.4h0v0Zm6.95-4.63h0s0,0,0,0v0Zm1.85,8.64h0s0,0,0,0v0Zm12.6.91h0s0,0,0,0v0ZM40.44,44.41h0s0,0,0,0v0ZM57.32,27.34h0s0,0,0,0v0Zm-21.9-6.87h0s0,0,0,0v0Zm.77-1.58h0v0Zm10,15.21h0s0,0,0,0v0Zm-7-3.57h0s0,0,0,0v0Zm6.45-7.6h0v0Zm7.95,4.74h0s0,0,0,0v0Zm-3.77-1h0s0,0,0,0v0Zm3.41.77h0s0,0,0,0v0ZM41,20.73h0s0,0,0,0h0v0ZM56.8,32h0s0,0,0,0h0s0,0,0,0ZM35.21,20.48h0s0,0,0,0h0s0,0,0,0Zm3.37,11.66h0s0,0,0,0h0s0,0,0,0Zm21.31,3h0s0,0,0,0h0s0,0,0,0Zm-16-7.27h0s0,0,0,0h0s0,0,0,0ZM27.72,35.36h0v0h0s0,0,0,0Zm15.64-4h0s0,0,0,0h0s0,0,0,0Zm-2.76-10h0s0,0,0,0h0s0,0,0,0ZM54.72,36h0s0,0,0,0h0s0,0,0,0Zm-5.46,9.42h0s0,0,0,0h0s0,0,0,0Zm-8.35-7.79h0s0,0,0,0h0s0,0,0,0Zm-8.84-11h0s0,0,0,0h0s0,0,0,0Zm6.56-7.91h0s0,0,0,0h0v0Zm-5.74,8.43h0v0h0s0,0,0,0Zm27.32,4.49h0s0,0,0,0h0s0,0,0,0Zm-17.91,1h0s0,0,0,0v0Zm6.89,8.07h0s0,0,0,0,0,0,0,0Zm5.6-7.71h0s0,0,0,0h0v0Zm-8.5-5.89h0s0,0,0,0h0s0,0,0,0Zm3.09,11.79h0s0,0,0,0h0v0ZM39.3,24.72h0s0,0,0,0h0s0,0,0,0Zm-.53,9h0s0,0,0,0h0s0,0,0,0Zm7.54,3.58h0s0,0,0,0h0s0,0,0,0Zm-3.58,7.8h0a0,0,0,0,0,0,0h0v0ZM35.38,29.52h0s0,0,0,0h0v0Zm5.72-7.07h0s0,0,0,0h0v0ZM30,36.24h0s0,0,0,0h0s0,0,0,0Zm18.69,1.63h0a0,0,0,0,0,0,0h0v0Zm-4.25,5.41h0a0,0,0,0,0,0,0h0v0ZM41.14,22.12h0c0-.14,0-.06-.1-.17,0,.14,0,.06.1.17l0,.06.07,0,0,0Zm-1,7.82h0a1.54,1.54,0,0,0,0-.48,3.1,3.1,0,0,0,0-.43,1.21,1.21,0,0,0-.43-.8c-.19.13-.22.15-.2.42a1.08,1.08,0,0,0,.14.44c.12.22.33.74.51.85l0,.06.08,0-.06,0Zm.08-10.82,0-.06-.07,0,0,0,0,.06.07,0-.05,0ZM53,32.09h0a.79.79,0,0,0,.49.65c.06-.3-.2-.42-.49-.65l0-.06-.08,0,.06,0ZM36.66,29.67h0c-.07.13,0,0,0,0s0-.13,0,0ZM36,39.31h0c-.08.13,0,0,0,0s0-.13,0,0Zm4.45-15.73h0c-.07.13,0,0,0,0s0-.14,0,0ZM50.77,36.44h0c-.07.14,0,0,0,0s0-.13,0,0Zm3.66-1h0c-.07.13,0,0,0,0s0-.14,0,0Zm.64-1.94h0c-.07.13,0,0,0,0s0-.14,0,0ZM41.79,22.37h0c-.08.13,0,0,0,0s0-.14,0,0Zm8.43,4.43h0c-.07.14,0,0,0,0s0-.13,0,0Zm-13.41-.44h0c-.07.13,0,0,0,0s0-.13,0,0Zm1.27,12.28h0c-.07.13,0,0,0,0s0-.13,0,0Zm1-17.81h0c-.07.14,0,0,0,0s0-.13,0,0Zm19.35,8h0c-.07.13,0,0,0,0s0-.13,0,0Zm-18,6.07h0c-.07.14,0,0,0,0s0-.13,0,0Zm18,1.71h0c-.07.13,0,0,0,0s0-.14,0,0ZM43,30.55h0c-.07.14,0,0,0,0s0-.13,0,0Zm-9.43,1h0c-.07.13,0,0,0,0s0-.13,0,0Zm19.29-3.88h0c-.07.13,0,0,0,0s0-.13,0,0Zm-5,5.91h0c-.07.14,0,0,0,0s0-.13,0,0ZM39.44,21.17h0c-.07.14,0,0,0,0s0-.13,0,0Zm5.79.2h0c-.07.14,0,0,0,0s0-.13,0,0ZM31,28.28h0c-.07.13,0,0,0,0s0-.13,0,0Zm6.09-8.49h0c-.07.13,0,0,0,0s0-.13,0,0Zm1.7.82h0c-.07.14,0,0,0,0s0-.14,0,0Zm16.63,12h0c-.06.08,0,0,.07,0h0c.13-.09,0,0,0,0s-.05,0-.06,0Zm2.54,2.5h0c-.06.09.08,0,.08,0s0,0,0,0-.06,0-.07,0Zm-6.57,3.6h0c-.06.09.08,0,.08,0s0,0,0,0-.06,0-.07,0ZM59.29,37h0c0,.1,0,0,.05,0s-.06.09,0,0,0-.09-.08,0ZM34.68,23.43h0c0,.09,0,0,0,0s0,.09,0,0,0-.1-.08,0Zm19,5.33h0c0,.1,0,0,0,0s0,.08,0,0,0-.09-.08,0ZM57.43,28h0c0,.1,0,0,0,0s-.06.09,0,0,0-.1-.08,0Zm-3.79,7.83h0c0,.09,0,0,0,0s-.06.09,0,0,0-.1-.08,0ZM45,42.65h0c0,.1,0,0,.05,0s-.06.09,0,0-.05-.09-.08,0ZM34,38.21h0c-.06.1,0,0,0,0s-.05.09,0,0-.05-.09-.08,0Zm2.84-15.28h0c0,.09,0,0,0,0s-.06.09,0,0,0-.1-.08,0ZM43.13,39h0c-.05.1,0,0,0,0s-.06.09,0,0-.05-.09-.08,0Zm.24,1h0c0,.09,0,0,.05,0s-.06.09,0,0-.05-.1-.08,0Zm3.53,2.6h0c0,.1,0,0,.05,0s-.06.09,0,0,0-.09-.08,0Zm.23,2.72h0c-.05.1,0,0,0,0s0,.08,0,0-.05-.09-.08,0ZM57.44,29.18h0c0,.1,0,0,.05,0s-.06.09,0,0-.05-.09-.08,0ZM44.67,24.25h0c-.05.09,0,0,0,0s0,.09,0,0,0-.09-.08,0Zm-6-2.66h0c-.05.09,0,0,0,0s0,.09,0,0-.05-.1-.07,0ZM56,29.41h0c-.06.1,0,0,0,0s0,.09,0,0,0-.09-.07,0ZM40.26,46.57h0c-.06.1,0,0,0,0s0,.09,0,0-.05-.09-.08,0Zm1.42-19.15h0c0,.1,0,0,0,0s-.06.09,0,0,0-.09-.08,0Zm9.56,4.27h0c-.05.1,0,0,0,0s-.06.09,0,0,0-.1-.08,0Zm-7.42,7h0c-.06.1,0,0,0,0s0,.09,0,0,0-.09-.08,0Zm5.88-.82h0c0,.08-.06,0,0,.05h0s0-.15-.06,0ZM43.08,20.92h0c0,.08-.06,0,.05,0h0s0-.15-.06,0ZM37.75,18h0c0,.08-.06,0,0,.05s0-.19,0-.05Zm.81,1.76h0c0,.08-.06,0,.06.05s0-.19-.06-.05Zm2.28,10.06h0c-.12,0,.05.05.05.05s0-.08,0-.05Zm10.84,5.25h0c-.13,0,0,0,0,0s0-.08,0,0Zm-7.5,9.45h0c-.13,0,0,.06,0,.06s0-.08,0-.06ZM52.47,29.5h0c-.13,0,.05.05.05.05s0-.07-.05-.05Zm-1.23.12h0c-.12,0,0,.05,0,.05s0-.08,0-.05Zm-6.79-.87h0c-.13,0,0,.05,0,.05s0-.07,0-.05Zm-4.79-3.38h0c-.12,0,.05.06.05.06s0-.08-.05-.06Zm16.65,5.81h0c-.13,0,0,.06,0,.06s0-.08,0-.06Zm-1.38,5h0c-.13,0,0,0,0,0s0-.07,0,0ZM42.09,28.32h0c-.13,0,0,.05,0,.05s0-.08,0-.05Zm-6.85-2.43h0c-.13,0,0,.06,0,.06s0-.08,0-.06Zm24.68,9.68h0c-.13,0,0,0,0,0s0-.08,0,0ZM50.34,34.1h0c-.13,0,0,0,0,0s0-.07,0,0ZM58,29h0c-.13,0,0,.05,0,.05s0-.07,0-.05ZM43.74,31.33h0c-.12,0,0,.05,0,.05s0-.08,0-.05Zm1.59-5.28h0c-.13,0,.05.05.05.05s0-.08-.05-.05ZM38.85,36h0c-.13,0,0,.06,0,.06s0-.08,0,0Zm17.27-2.76h0c-.13,0,.05.05.05.05s0-.08-.05-.05Zm3.08,2.11h0c-.13,0,0,0,0,0s0-.08,0,0ZM34.78,26.15h0c-.13,0,0,.05,0,.05s0-.08,0-.05Zm9,16.05h0c-.12,0,0,0,0,0s0-.08,0,0ZM38.53,19.49h0c-.13,0,0,.05,0,.05s0-.08,0-.05Zm18,11h0c-.13,0,0,.05,0,.05s0-.08,0-.05ZM57,27.24h0c-.12,0,.05.05.05.06s0-.08-.05-.06Zm-1.16,1.1h0c-.13,0,0,.05,0,.05s0-.08,0-.05ZM32.9,25.53h0c-.13,0,.05.06.05.06s0-.08-.05-.06Zm8,10.83h0c-.13,0,0,.06,0,.06s0-.08,0-.06Zm4.62-13.52c-.13,0,0,.05,0,.05s0-.07,0-.05Zm9.94,6.25h0c-.12,0,.05.05.05.05s0-.07-.05-.05ZM44.93,24.61h0c-.13,0,0,.05,0,.05s0-.07,0-.05Zm5,14.48h0c-.13,0,0,0,0,.06s0-.08,0-.06Zm-13.12-.67h0c-.13,0,0,0,0,0s0-.08,0,0Zm13.81-8.18h0c-.12,0,.05.06.05.06s0-.08-.05-.06ZM57.09,28h0c-.12,0,0,0,0,0s0-.08,0,0Zm-6,.89h0c-.13,0,0,.05,0,.05s0-.08,0-.05Zm8.2,4.53h0c-.13,0,0,.06,0,.06s0-.08,0-.06Zm-6.57-5.64h0c-.13,0,0,.05,0,.05s0-.07,0-.05Zm-16.4-6.87h0c-.13,0,0,0,0,0s0-.08,0,0Zm13.85,7.77h0c0,.12.06,0,.06,0s0-.15-.06,0Zm7.2,4.94h0c-.09.11,0,0,.07,0s0-.07-.07,0ZM42,20h0c-.09.11,0,.06.07,0s0-.08-.07,0ZM34.53,21.4h0c-.09.11,0,.05.07,0s0-.07-.07,0Zm19.11,6.89h0c-.09.11,0,.05.07,0s0-.07-.07,0Zm2.63,3.94h0c-.17,0-.07,0-.21,0,.17,0,.07,0,.21,0ZM33.74,29.56h0a.89.89,0,0,0,.1-.55.36.36,0,0,0-.1-.25c-.09-.1-.05,0-.09-.07s0-.16,0-.47-.17-.77-.33-.47a4.59,4.59,0,0,0,.39,1.81c0,.15-.05.06,0,.19,0-.15.05-.07,0-.19Zm21.85,2.11h-.12l-.08,0c.28.1.06.1.2,0ZM50.11,31h0c-.16,0-.08,0-.18.09.15,0,.07,0,.18-.09Zm-2.06,8.84L48,40,48,40l.08-.15-.06,0Zm-7.2-5.79h0c0,.1,0,.11.1.17,0-.14,0-.06-.1-.17Zm-2.59-5.94h0c0,.1,0,.11.1.17,0-.14,0-.06-.1-.17Zm6.33-6.77h0c0,.1,0,.11.11.17,0-.14,0-.06-.11-.17Zm-1.35,3.26h0c-.06.13,0,.09,0,.19,0-.15,0-.06,0-.19Zm8.35,15.65h0c-.06.14,0,.1,0,.19,0-.15.05-.06,0-.19ZM43.72,20.58h0c-.07.13,0,.13.09.21l-.09-.21Zm-6-.94h0c-.06.15.07.11.15.07l-.15-.07ZM34.27,31.83,34.2,32c.21,0,.18,0,.07-.14Zm22.14,6.3h0c0-.2,0-.16-.16-.07l.16.07ZM34.33,29.66h0c-.09.2-.06.17,0,.31l0-.31Zm20.75-.79h0c.05.06-.07.05.06,0s0,0,.09-.08c-.11,0,0,0-.12,0s0,0,0,.06Zm-8.16-2.64h0c0,.1,0,.11.16.19,0-.2.07-.06-.16-.19ZM46.13,23h0c-.16,0-.06,0-.2,0l.15.08.05-.1Zm-8-2.75h0c-.16,0-.06-.05-.2,0l.15.07.05-.09Zm20.5,7.56-.05.09c.17,0,.07,0,.21,0l-.16-.07ZM41.05,25.93l-.07.14.1.05c0-.15.05-.06,0-.19Zm3.1,3.86-.07.14c.14,0,.06,0,.17-.09l-.1-.05ZM59.83,34.4l-.08.14c.15,0,.07,0,.18-.09l-.1-.05Zm.08,2.88h0c.05.06-.07.06.06,0s0,0,.09-.07c-.3-.07-.15,0-.15,0Zm.61-3.2h0c0,.06-.07.05.06,0s0,0,.09-.08c-.3-.06-.15,0-.15,0Zm-2.74-3.6h0c-.16,0-.07,0-.17.09l.1.05.07-.14Zm-27.45-.74h0c0-.09.07-.2-.06-.16s0,.1.06.16ZM43.8,21h0c0,.16,0,.13.13.24,0-.16,0-.11-.13-.24Zm12.65,9.51h0c0,.16,0,.13.13.24,0-.16,0-.11-.13-.24ZM38.09,24.31h0c0,.11,0,.13.16.2,0-.2.07-.06-.16-.2Zm-1.84-4.56h0c-.06.13,0,.13.08.21,0-.16.06-.1-.08-.21ZM46.23,39h0c-.07.14,0,.13.08.22,0-.16,0-.1-.08-.22Zm6.18-2.5,0,.09.16.08,0-.1-.16-.07ZM53.07,28l0,.1.16.07,0-.09L53.07,28ZM39.89,33.08l0,.09.16.07,0-.09-.16-.07Zm17.9-5,0,.09.15.07,0-.09-.15-.07ZM39.36,18.29l0,.09.16.08.05-.1-.16-.07Zm19.72,8.9h0c-.16,0-.07,0-.17.09l.15.08c0-.1,0-.09,0-.17ZM37.9,17.76h0c-.25-.1-.06-.1-.26,0l.21.1,0-.09Zm5.36,21.85-.1.19.1.05c.1-.23.1-.06,0-.24Zm14.46-12.9h0c0,.14.17.05.26,0-.25-.1-.06-.1-.26,0ZM41.17,19.52h0c-.07.15,0,.16.13.24,0-.16,0-.11-.13-.24ZM53.08,31.16h0c-.07.14,0,.16.13.24,0-.17,0-.11-.13-.24Zm-9-5.07h0c-.07.15,0,.16.13.24,0-.16,0-.11-.13-.24Zm-2.95,2.37h0c-.1.18-.09.14,0,.26,0-.19,0-.12,0-.26Zm17-1.38-.08.14c.18,0,.12.05.23-.07l-.15-.07Zm3.41,2.21h0c-.06.13,0,.13.08.21l.08-.14-.16-.07ZM40,27h0c-.08.19-.06.16,0,.31.08-.2.06-.16,0-.31ZM38.51,40.86l0,.1.21.1,0-.1-.21-.1ZM36.78,24l-.05.1.21.1.05-.1-.21-.1Zm1.38-2.82,0,.09.21.1,0-.09-.21-.1Zm3-1.22,0,.09.2.1.05-.09-.2-.1Zm2.29,12.78h0c0,.16,0,.19.15.31,0-.18.08,0,0-.19s0,0-.12-.12Zm6.48-2.08h0c0,.16.17.1.26,0-.25-.1-.06-.09-.26,0Zm8.66-3.09h0c0,.16.16.1.25,0-.25-.09-.06-.09-.25,0ZM48.13,42.63h0c0,.18,0,.16.11.28,0-.21.08-.13-.11-.28Zm6.59-13.46h0c-.21-.05-.14-.06-.25.11.28,0,.11.1.25-.11Zm-18.3,4.47h0c-.13.14-.17.1,0,.24l.1-.19-.1,0Zm1.17-10.58h0c0,.19,0,.17.11.29,0-.18,0-.16-.11-.29ZM34.85,36.2h0c-.16.11-.15.15.06.27,0-.2,0-.09-.06-.27Zm9.57-1-.1.19c.26.06.3,0,.1-.19ZM55.81,37h0c0-.23,0-.28-.21-.1l.21.1Zm-1.7-7.25h0c-.21,0-.14-.06-.25.12.21,0,.14.06.25-.12Zm-1.54,4.12h0c-.21,0-.14-.07-.26.11.21,0,.14.06.26-.11ZM33.91,31.66h0c0,.2-.08.2.08.33a1.34,1.34,0,0,0,0-.2c0-.12,0,0-.08-.13Zm-.43-5-.08.14a.49.49,0,0,0,.23.06c0-.2.08-.06-.15-.2ZM56.86,37.05h0c0,.24.06.08.23.29,0-.13.06-.08-.05-.19a.52.52,0,0,0-.18-.1Zm-15-7.31h0c-.09.16,0,.3.2.09l-.2-.09ZM52.88,32h0c-.17,0-.2,0-.33.14.2,0,.21.05.33-.14Zm5.35-2.62h0c-.15.11-.15.14.06.26,0-.18,0-.11-.06-.26ZM46.11,40.22h0c-.23,0-.12,0-.18.21.11,0,.11,0,.18-.09v-.12Zm-8.7,3.19c-.09,0-.12,0-.18.09l.18,0h.18c-.13-.1-.06-.09-.18-.15Zm.48-23.94h0c0-.1.13-.33,0-.28s0,.2,0,.28Zm19.87,8.86h0c.07.45.1.25.13.24.19-.05,0-.18-.13-.24Zm-14-3.91h0a1.14,1.14,0,0,0,.19.11c.15,0,.1,0,.15,0-.17-.14-.15-.22-.34-.1Zm5,14.38h0c-.07.15,0,.16.13.25L49,38.9l-.21-.1ZM43.42,25.11l-.16.16c.25.1.06.09.26,0,0-.13,0-.06-.1-.16Zm-3.8,11.73h0c-.13.24-.14.16,0,.33l.16-.28-.11,0Zm11-9.31h0c-.19,0-.24,0-.36.18.19,0,.24,0,.36-.18ZM36.93,18.35h0c0,.16.11.15.23.18l.05-.1c-.2-.09-.11-.07-.28-.08Zm6.29,19.16h0c-.14.25-.19.21,0,.36.05-.2.08-.2,0-.36Zm-5.8-.79h0c-.2-.08-.2-.08-.31.08.26.07.19.08.31-.08Zm4.09,9.81h0c0,.08,0,.11.11.17l.12-.24c-.13,0-.16-.06-.23.07ZM34.66,22.12h0c0,.12.07.15.21.22L35,22.2c-.21-.1-.12-.08-.29-.08ZM56.48,34.85h0c0,.18,0,.17.21.22l.05-.1c-.14-.11-.1-.12-.26-.12Zm1.79-7.46h0a.31.31,0,0,0-.05.21.67.67,0,0,1,.18,0l.07-.14-.2-.1Zm-22.9-6.11h0c0,.21-.08.23.13.36,0-.2,0-.21-.13-.36ZM48.68,38.09h0c-.34-.07-.24.12-.08.26.1-.19.08-.11.08-.26ZM40.86,27.26h0a.31.31,0,0,0,0,.21c.2.05.13,0,.28,0-.1-.13,0-.07-.23-.17Zm-9.6,3.17h0c0,.08,0,.12.11.17s.14,0,.23-.07c-.21-.1-.16-.09-.34-.1ZM40.64,28h0c0,.07,0,.26.26.13,0,0,0-.3-.26-.13Zm1.73,9.84-.08.06c-.17.22-.09.19,0,.29.18-.21.24-.19.12-.35ZM57,28.51h0c0,.07,0,.12.11.16s.14-.05.2-.13c-.27-.13-.13-.12-.31,0Zm-18,.11a.6.6,0,0,0,.13.6c.08-.31,0-.15,0-.3s0-.1-.08-.3Zm.16-6.74h0c0,.12,0,.18.08.25s.15,0,.21-.05c-.11-.13-.08-.09-.29-.2ZM37.32,40.17h0c0,.08,0,.12.11.17a.32.32,0,0,0,.33,0,.83.83,0,0,0-.44-.15Zm25-8.65-.28-.11,0,0c-.2-.06-.12-.05-.23.05a3,3,0,0,1,.49.18l.05-.1ZM37.26,41.74h0c-.08.21-.07.24.13.36.09-.2.08-.24-.13-.36ZM50,39.54h0c-.22,0-.11.1-.28.4.11,0,.11,0,.18-.09s.11-.16.1-.31ZM29.26,32.36h0c-.13.25-.09.26.1.41.1-.23.08-.26-.1-.41Zm16.66,4.45h0c-.05.09,0,.09,0,.17.23,0,.23-.07.28-.28L46,36.62l-.1.19Zm.62-6.75h0c-.06.1.06.14.15.19a.94.94,0,0,0,.18-.21c-.21-.09-.11-.07-.28-.07l-.05.09Zm9.73,2.14a.22.22,0,0,0,.08.09.45.45,0,0,0,.41,0c-.31-.16-.25-.18-.49-.06ZM35.37,20.8l-.15.28c.15.06.2.1.28,0s0-.16-.13-.24Zm19.3,10.54h0s0,.11,0,.12c.21,0,.36,0,.3-.21-.13,0-.23-.06-.3.09Zm-5.33,2.57h0c-.26,0-.29,0-.48.18.18.07.14.07.29,0s.1,0,.19-.18Zm2.73-4.13h0c-.12-.06-.17.08-.23.18.2.1.11.07.28.08s.13-.18,0-.26ZM36.73,42.37h0c-.07.14,0,.1,0,.19.25-.28.26-.22.35-.54l-.38.35Zm19.21-7.13h0c0,.22.06.26.32.39,0-.22,0-.26-.32-.39ZM41.73,27.33c0-.12.05-.51-.16-.45s0,.35.16.45Zm2.62,10.85h0c-.12.23.11.29.16.31.11-.22.11-.23-.06-.38-.1.06-.06,0-.1.07Zm-6-18.32c.05-.12.14-.49-.1-.42-.09,0-.07.13,0,.22s0,.11.14.2ZM34.08,30.61h0s-.21.2-.07.26.07,0,.23.06l0-.22-.21-.1Zm11.09-4.06h0c0,.2,0,.14.13.32a1.16,1.16,0,0,0,.26.28,1,1,0,0,0-.39-.6Zm3,15.36h0c0,.32.28.32.28.08s0-.09-.16-.2c-.07.08,0,.08-.12.12Zm5.37-5h0a1.42,1.42,0,0,0,.41.2L54,37c-.24-.19-.25-.42-.46-.11ZM44.14,22h0a1,1,0,0,0-.08.26l.26.13c.08-.16.14-.23,0-.32L44.14,22Zm1.6,14.93h0c.07-.13,0-.27-.13-.24s-.11.14-.15.28c.15.06.21.1.28,0Zm12.17.6h0c.22.13.26.3.44,0a.86.86,0,0,0-.23-.17c-.11,0-.15,0-.21.14ZM47.84,38.93h0c-.28-.06-.18-.06-.3.44l.1.05a1.58,1.58,0,0,0,.2-.49ZM41.06,24.21h0a.6.6,0,0,0,.19.63,2.16,2.16,0,0,0,0-.36c0-.16,0-.16-.19-.27Zm-1-3.09h0a.57.57,0,0,0,.11.52c.21-.13.2-.37-.11-.52Zm4.15,21.32h0c0,.23,0,.16.11.37s.06.17.26.28c0-.19,0-.24-.22-.53-.1-.11,0,0-.15-.12ZM36.12,19.27h0s.27.36.54.08a1.13,1.13,0,0,0-.38-.24l-.16.16Zm-1.87,5.32h0c-.12.22-.12.15-.07.34a1,1,0,0,0,.13.28c.06,0,.2-.05.1-.39,0-.16,0-.13-.16-.23ZM55.76,37.4c.06.3.4.37.62.42-.08-.39-.46-.35-.62-.42ZM34.94,23.79a.45.45,0,0,0,.15.55c.24-.46-.07-.71-.15-.55Zm11.13,8.48h0c-.24-.12-.36.1-.41.27.21.08.21.07.38,0s.23-.15,0-.24Zm-6.44-12.9h0c-.17-.09-.15.17-.13.27,0,.36,0,.26.19.35l0-.21c0-.26.06-.34-.1-.41ZM34.87,30.22h0c-.06.27.35.58.6.71a1.18,1.18,0,0,0-.6-.71ZM49.39,36h0a.94.94,0,0,0-.47,0c-.73.18,0,.47.47,0Zm-7-10.67h0c.45.35.23.26.41.48s.21-.39-.15-.59c-.17.14,0,0-.15,0s0,0-.11.09Zm3.25,12.23h0a.4.4,0,0,0,.05.5c.21-.38.33-.47.15-.76-.14.1,0-.12-.2.26Zm-2.8-16.34,0,.19a.3.3,0,0,0,.11.17c.66.63.11-.83-.14-.36Zm12.94,16.6c-.08.2-.08.06,0,.21s.41.36.51.45c.1-.25.09-.05-.07-.3a.54.54,0,0,1-.09-.25,1.41,1.41,0,0,1-.33-.11ZM42.55,35.11h0a1.3,1.3,0,0,0-.12.48l.1,0c.08-.09.11-.08.18-.21.22-.41.21-.41,0-.53-.14.1,0-.1-.18.21ZM36,21.65h0c0,.3.23.58.59.34,0-.17-.19-.6-.59-.34Zm11.7,8.51h0a1.22,1.22,0,0,0-1.08.43.61.61,0,0,0,.6-.11l.48-.32Zm2.68,10.9h0s-.06.12.07,0c.19.16,0,.14.21.22s.31-.5.07-.62-.35.43-.35.43Zm-3.63-4h0a.66.66,0,0,0,.11.77,2.77,2.77,0,0,0,.35-.78c0-.08,0-.75-.46,0ZM39.46,22.49h0a.38.38,0,0,0-.07.33c.12.67.08.16.56.8a.48.48,0,0,0,.08-.18,1.24,1.24,0,0,0-.57-1Zm-1,17h0a3,3,0,0,0-.21.5c-.12.31-.16.25,0,.4a3.06,3.06,0,0,0,.49-.63c.21-.29.17-.42,0-.6a.58.58,0,0,0-.3.33Zm-2.76-6.43.06.22c.35.17.34.21.67.21.14-.27.15-.53-.32-.75-.25-.12-.33.14-.41.32ZM31.8,30.27a.68.68,0,0,0-.05.5c.33.66.92.46.68-.2-.16-.41-.35-.39-.58-.39l-.05.09Zm9.43,6.1h0c-.11.22,0,.19-.11.38v.57c.64-1.18.83-.78,1-1.52-.4-.16-.73.28-.89.57ZM53,29.15h0c0-.18,0,0,0-.15s0-.24-.12-.37c-.51-.64-.7-.24-.94-.07s-.28,0-.48.2a2.31,2.31,0,0,0,1.28.27c.24.11-.08.11.26.12Zm10.82,3.3h0s0,0,0,0Zm.33.1h0Zm-3,2h0Zm-.89,1.53h0Zm.78-1.7h0Zm2.18-2.14c0,.06.06.16.08,0s.14.06,0,0,0-.1-.07,0Zm2.43-1c0,.08.22,0,.07,0s-.12-.13-.07,0ZM62.05,35c0,.08.23,0,.08,0s-.12-.13-.08,0ZM61.4,33.3c0,.06.05.16.06,0s0-.17-.06,0ZM61,35.6c.17,0,.11.06.23-.06-.13,0-.16-.07-.23.06ZM62.08,33c.11.13,0,.07.24.17l.07-.14c-.14-.06-.23-.13-.31,0Zm-.29,1c.23,0,.21,0,.38-.11-.24-.09-.23-.06-.38.11Zm-.41.28c.15.06.21.1.28,0s0-.16-.13-.24l-.15.28Zm-.86,1.48,0,.22a1.58,1.58,0,0,0,.43.15c.08-.38-.39-.37-.39-.37Zm3.42-4.57c.16,0,.12,0,.29,0,.35-.11.27-.23.27-.3a.92.92,0,0,0-.32.07c-.19.07-.12,0-.24.25Zm-.27,1h0c-.08.16.31.25.57-.21A.5.5,0,0,0,63.67,32.21Z"/><path class="cls-2" d="M3.29,0c3.13,1.64,3.14,1.58,4.1,2.17-.3.63-1.64,3.31-2.61,9.48C1.71,31.18,8.2,42.14,17.41,47.75l-.05.09a.3.3,0,0,0,.21,0c.79.47,1.6.91,2.43,1.31a1.19,1.19,0,0,0-.19.29h0a.62.62,0,0,0,.11.76,2.38,2.38,0,0,0,.34-.78.43.43,0,0,0,0-.15l.71.32c.58.26,1.17.49,1.76.71,0,0,0,0,0,0a28.76,28.76,0,0,0,13.5,1.44l-.05,0h0c0,.14.17,0,.26,0l-.1,0,.8-.11a1.74,1.74,0,0,1-.26.19h0c.17.18.2.15.43.15l.18-.33-.11,0,.1,0h0a.59.59,0,0,0,.22,0c7.11-1.24,14.72-5,22.43-11.76l.06,0a.38.38,0,0,0,0-.1,81.33,81.33,0,0,0,8.12-8.3,11.37,11.37,0,0,1,1.81,1.32.46.46,0,0,0-.1.1c-.13.24.12.24.38.11.26.2.54.41.84.62-1.4,1.79-2.82,3.45-4.23,5-.1-.22-.39-.2-.6-.06h0a.31.31,0,0,0,.36.33q-1.17,1.26-2.34,2.4h0c-.1-.08-.18-.21-.28-.08h0c.1.12,0,.08.2.16q-.52.53-1,1l-.15.05,0,.07a49.87,49.87,0,0,1-18,11.27c.24-.19.17-.36.38-.29,0,0,0,0,.11,0a.42.42,0,0,0,.26-.08.87.87,0,0,0,.41-.4h0c.15,0,.07,0,.18-.09-.15,0-.07,0-.18.09a5.47,5.47,0,0,0-1.76.76c0,.09,0,.14,0,.17-.43.14-.85.27-1.28.39h0s0-.15,0,0h0a.08.08,0,0,0,0,0,35.39,35.39,0,0,1-14.08,1.07s-.05-.06-.08,0h0s0,0,0,0a36,36,0,0,1-13.66-4.77c.13-.14.16-.15.06-.29l-.08.07a.53.53,0,0,0-.1.15,35.72,35.72,0,0,1-5.74-4.28l.07-.12-.11-.05h0l-.07.07L9,45.78a.77.77,0,0,0,.46.1c.14-.27.15-.52-.32-.75-.25-.12-.33.15-.41.32l0,.09c-3.61-3.51-6-7.46-6.91-11-3.95-16.33-.61-31.19.94-34h0c0,.07.22,0,.07,0l-.05,0C3,.11,3.17,0,3.29,0ZM4.23,8.3h0ZM3,2.88H3ZM4.42,1.7h0s0,0,0,0Zm.47.23h0s0,0,0,0ZM4.11.84h0s0,0,0,0ZM2.84,2.24h0s0,0,0,0ZM2.5,4.74h0ZM3,9.21h0s0,0,0,0ZM2,8.87c-.06.12.07.06,0,0s0-.15,0,0ZM4.79,2.23c-.06.12.07.06,0,0s0-.15,0,0Zm-.7,5.71c-.06.12.08.06,0,0s0-.15,0,0ZM2.17,4.11h0c-.18,0-.15,0-.05.13l.05-.08s.07,0,0,0,0-.15,0,0ZM4.73,6.33c-.06.12.07.06,0,0s0-.15,0,0Zm-1.44-2s0,0,.06,0,0,.15,0,0l0,0s0-.11-.07,0Zm-2,2s.05,0,.06,0,0,.15,0,0-.05-.13-.09,0ZM3.45,1.94c0,.06.06.16.08,0s.13.06,0,0,0-.11-.07,0Zm1-.69c0,.06,0,.16.08,0s.13.06,0,0,0-.11-.06,0Zm.16.55c0,.08.22,0,.07,0s-.11-.13-.07,0ZM2.56,2c0,.08.22,0,.07,0s-.12-.13-.07,0Zm.71-.36c0,.07.22,0,.07,0,0,0-.11-.12-.07,0ZM4,2.93,4.18,3c0-.15,0-.07-.1-.17l0,.09ZM2,4.66s-.18,0,0,.14c0-.11.08,0,0-.12s0,0-.06,0ZM2.81,7.2s-.12-.06,0,.06,0,0,.07,0,.24-.16,0-.08Zm2.28-.81.2.1s0,0,0-.1,0,0-.1-.09l0,.09ZM3.71,2.19l.16.07,0-.09-.16-.08,0,.1Zm0,1.5a.47.47,0,0,0,.13-.12L3.72,3.5c0,.14-.06.06,0,.19ZM2.54,2.92c0,.2-.07.06.16.2,0-.1,0-.25-.16-.2ZM4,9.9c.18,0,.11,0,.23-.07L4,9.75,4,9.9ZM3.08,3l.15.07c0-.16.06-.1-.08-.21L3.08,3Zm.67.08c0,.2-.08.06.15.2,0-.13,0-.26-.15-.2ZM5.12,1.74c.17,0,.11,0,.25-.11-.22-.09-.26-.08-.25.11ZM3.94,2c.12,0,.34.13.28,0s.14-.17-.28,0ZM2.06,7l.16-.16L2,6.75c-.08.2-.11.13.05.27ZM3.44,2.94l.2.1.08-.14c-.12-.1-.05,0-.13-.12a.34.34,0,0,0-.15.16ZM1.91,3.5c0,.17,0,.11.13.25.09-.07.07,0,.15-.17a.48.48,0,0,0-.28-.08ZM2.48,5l.15.07c.1-.19.08-.1.08-.26-.17,0,0-.09-.16,0s0,0-.07.18Zm1.17-3.7c0,.19,0,.08.21.22,0-.1.1-.19,0-.24s-.16-.05-.21,0ZM2.4,4.16A.63.63,0,0,0,2.94,4a.43.43,0,0,0-.54.16Zm.4.25h0a.31.31,0,0,0,0,.31.67.67,0,0,1,.18,0c.17-.31,0-.31.08-.38s.23,0,0-.33c-.18.13-.06,0-.13.2s-.13,0-.2.17Zm.18-1a.83.83,0,0,1,0,.46L3.19,4l.18-.33c-.14-.18-.13-.22-.39-.25Zm.51,12.4h0s0,0,0,0h0s0,0,0,0Zm-.31,9.56,0,.12,0-.12,0,0H3.12l.06,0ZM5.12,40h0s0,0,0,0ZM2.45,26.64h0s0,0,0,0Zm-.75,7h0s0,0,0,0Zm.46.22h0Zm1.09-6.64h0s0,0,0,0Zm-.83,2.27h0s0,0,0,0Zm1.15-2.89h0ZM4.66,11.12h0s0,0,0,0ZM3.72,31.05s0,0,0,0h0Zm1.72,2.83s0,0,0,0h0Zm-2.07-5s0,0,0,0h0ZM2.08,19.83s0,0,0,0h0s0,0,0,0ZM4,21.35s0,0,0,0H4s0,0,0,0ZM1.62,28.08l-.06,0,0,.08,0-.05c.36.09.62.22.84,0a.86.86,0,0,0-.84,0ZM4,23.77c-.06.11.08.05,0,0s0-.15,0,0Zm0,5.05c-.07.12.07.05,0,0s0-.14,0,0ZM2.06,34.16c-.06.12.08.05,0,0s0-.15,0,0Zm1.41-4.59s.06,0,.06,0,0,.15,0,0v0c-.07-.05-.05-.11-.09,0ZM1.66,16.36c0,.06.05.16.08,0s.13.06,0,0,0-.11-.06,0Zm1-.4c0,.05.06.16.08,0s.13.06,0,0,0-.11-.07,0ZM1.74,33.18s.06.16.08,0,.13.06,0,0,0-.11-.07,0Zm.05-16.1c0,.06.06.16.08,0s.14.06,0,0,0-.1-.07,0Zm1.59,8.17c0,.08.22,0,.07,0s-.11-.13-.07,0Zm-.61,5.88c0,.07.22,0,.08,0s-.12-.12-.08,0Zm-1-6.32c0,.08.22,0,.07,0s-.12-.13-.07,0Zm.16,8.92c0,.07.22,0,.07,0,0,0-.11-.12-.07,0Zm2.5-3.95c0,.08.22,0,.07,0,0,0-.12-.12-.07,0ZM2.27,31.71c0,.08.22,0,.07,0,0,0-.12-.13-.07,0Zm1.37-1.23c0-.14,0-.06-.11-.17,0,.15,0,.06.11.17Zm-.88-.19c0-.18.15,0-.1-.17l0,.07s.06.07.07.1ZM3,32.68l.08-.14-.1,0c0,.15-.06.06,0,.19Zm-.72-1.06c.2,0,.12,0,.28,0-.18,0-.15,0-.28,0ZM3.5,18.74c.18,0,.11.05.23-.07-.13,0-.16-.06-.23.07ZM2.25,16.11c.21,0,.06.07.2-.13l-.1-.05-.1.18ZM.85,28.65c.21.05.13,0,.28,0-.15-.06-.2-.1-.28,0Zm3.38,7.61.16.08.07-.14c-.13,0-.15-.07-.23.06ZM.51,11.72l.21.09.05-.09-.21-.1-.05.1Zm2.3,15c.08-.2.1-.13-.06-.27-.08.19-.11.13.06.27ZM1.46,28c.09-.2.08-.2-.08-.33,0,.17,0,.19.08.33Zm.93,5.67c.18,0,.12,0,.25-.11-.22-.09-.25-.08-.25.11ZM2,9.37c.11.05.06,0,.23.05l-.11-.13L2,9.17c0,.08-.07.15,0,.2ZM.44,17.31c.18,0,.16,0,.3-.2-.23-.06-.17,0-.3.2Zm-.19-.86c.21,0,.16,0,.23-.3-.11,0-.14-.06-.22.2v.1ZM6.61,35.58l0-.1a4.5,4.5,0,0,1-.44-.27c0,.14-.07.09.1.2l0,0,.26.15ZM.52,10.24c.23.09.26.07.39-.11-.23-.09-.26-.08-.39.11Zm.92,9.57-.1.19.15.08c.15-.17.18-.18.07-.38-.06,0-.08,0-.12.11Zm2.17,10.7h0c0,.24,0,.18.34.34a.39.39,0,0,0-.21-.34s-.11,0-.13,0Zm-1.67-.74c-.08.15,0,.21.1.29s.16-.22,0-.35l-.1.06ZM1,24.15a.33.33,0,0,0,0-.25c0-.15,0-.13-.17-.23-.07.27,0,.28.13.48ZM.75,9.46.67,10c.22-.25.16-.22.25-.59-.11,0-.1,0-.17.1Zm.92,8.33c0,.09,0,0,0,.12.23.05.24,0,.36-.18,0,0-.24-.16-.36.06Zm-.26,1.83c.07-.14,0-.16-.13-.24-.1.11-.22.14-.16.29s.22.08.29-.05ZM2.8,23c.13-.61-.57-1-.29-.35A.87.87,0,0,0,2.8,23Zm-.88-3.79c-.2.37-.1.13-.1.3.35,0,.35-.18.56-.56a.43.43,0,0,0-.46.26Zm.21,1.17c-.41.77.2.41.26.36A2.69,2.69,0,0,0,2.85,20a.72.72,0,0,0-.72.37ZM5.45,40.55ZM21.77,51.47h0v0Zm-8.86-5.82h0s0,0,0,0v0Zm9.93,5h0s0,0,0,0v0ZM13.37,46h0s0,0,0,0v0Zm-1.76-1.42h0v0h0s0,0,0,0ZM5.11,39h0s0,0,0,0h0v0Zm.82.51h0s0,0,0,0h0s0,0,0,0Zm16.3,13.52h0s0,0,0,0h0v0Zm.18-1.8h0s0,0,0,0h0s0,0,0,0Zm-10.6-5.13h0s0,0,0,0h0s0,0,0,0Zm7.54,3.58h0s0,0,0,0h0s0,0,0,0ZM8.41,41.92h0s0,0,0,0h0s0,0,0,0Zm13.35,8.36h0v0h0s0,0,0,0ZM9.69,42.07h0c-.07.14,0,0,0,0s0-.14,0,0Zm3.8,5.26h0c-.08.13,0,0,0,0s0-.13,0,0ZM6.05,38.82h0c-.07.14,0,0,0,0s0-.14,0,0ZM24.41,51.15h0c-.06.08.08,0,.08,0s0,0,0,0-.06,0-.07,0Zm-7.56,0h0c-.05.09,0,0,0,0s-.06.09,0,0-.05-.1-.08,0Zm-9-12.55h0c-.13,0,0,.05,0,.06s0-.08,0-.06Zm-1.88-.61h0C5.81,38,6,38,6,38s0-.08,0-.05Zm7.94,10.83h0c-.12,0,0,0,0,0s0-.07,0,0Zm9,2.73h0c-.13,0,0,0,0,0s0-.08,0,0ZM6.77,42h0a.76.76,0,0,0,.1-.55.37.37,0,0,0-.09-.25c-.09-.09,0,0-.1-.06s0-.17,0-.48-.16-.77-.32-.46A4.75,4.75,0,0,0,6.77,42c0,.15,0,.06,0,.19,0-.15,0-.07,0-.19Zm14.32,10.3-.07.15.05,0,.07-.14-.05,0Zm-7.2-5.78h0c0,.09,0,.1.1.17,0-.14,0-.07-.1-.17Zm10.74,6.2h0c-.07.13,0,.09,0,.19,0-.15,0-.07,0-.19ZM7.36,42.07h0c-.08.19-.06.16,0,.31l0-.31Zm11.9,9.37h0c-.06.13,0,.13.08.21,0-.16.06-.1-.08-.21Zm-6.33-6,0,.09.15.08.05-.1-.15-.07ZM6.51,39.05l-.07.14a.36.36,0,0,0,.23.05c0-.2.07-.06-.16-.19ZM21.85,51.21h0c-.07.14,0,.16.13.24l.07-.14-.2-.1Zm-5.6-1.29h0c-.13.24-.18.2,0,.35,0-.19.08-.2,0-.35Zm5.46.57h0c-.33-.07-.23.12-.07.26.09-.19.07-.1.07-.26ZM23,52h0c-.22,0-.12.09-.28.4.11,0,.11,0,.18-.09S23,52.1,23,52ZM19,49.21h0a.18.18,0,0,0,0,.17c.23,0,.22-.07.28-.28L19.06,49l-.1.18Zm-1.57,1.38h0c-.12.22.1.28.15.31.11-.22.12-.24-.05-.38-.1.06-.06,0-.1.07ZM7.12,43h0c-.06,0-.21.19-.08.26s.08,0,.24,0l0-.21-.2-.1Zm11.66,6.29h0c.07-.13,0-.28-.13-.25s-.11.15-.15.29c.15.06.21.1.28,0Zm2.1,2h0c-.28-.06-.18-.06-.31.45l.11,0a1.8,1.8,0,0,0,.2-.5ZM7.29,37h0c-.12.22-.13.15-.07.34a.8.8,0,0,0,.13.28c.06,0,.2,0,.09-.39-.05-.15,0-.12-.15-.23Zm.62,5.64h0c-.06.27.35.58.59.7a1.12,1.12,0,0,0-.59-.7ZM18.69,50h0a.39.39,0,0,0,0,.5c.2-.38.33-.47.15-.76-.15.1,0-.11-.2.26Zm-3.1-2.45h0a1.45,1.45,0,0,0-.13.47l.11,0c.08-.09.11-.08.17-.21.22-.41.22-.4,0-.52-.15.1,0-.1-.18.21Zm7.84,5.94h0s-.06.12.08,0c.19.16,0,.14.21.22s.31-.51.07-.62-.36.42-.36.42Zm-9.16-4.68h0c-.12.21,0,.19-.11.38v.57c.63-1.19.83-.79,1-1.53-.41-.16-.74.29-.89.58Zm29.37,4.08h0s0,0,0,0v0Zm-12.77-.7h0s0,0,0,0v0Zm-.82,2.51h0s0,0,0,0v0Zm6.35-2.55h0s0,0,0,0v0ZM36.27,54h0s0,0,0,0v0Zm.46.22h0s0,0,0,0v0Zm-1.38,0h0s0,0,0,0v0Zm.44-1.8h0s0,0,0,0v0Zm-3.74.33h0v0Zm-.36-.18h0v0Zm5.24,1.36h0c-.07.13,0,0,0,0s0-.13,0,0Zm-3.65-1.18h0c-.07.13,0,0,0,0s0-.13,0,0Zm-1.92,0h0c-.07.13,0,0,0,0s0-.13,0,0Zm9-1.24h0c-.07.13,0,0,0,0s0-.13,0,0Zm-2.52.06h0c-.07.09,0,0,0,0h0c.13-.09,0,0,0,0s0,0-.06,0Zm-5.73,2.31h0c-.06.1,0,0,0,0s0,.09,0,0-.05-.09-.08,0Zm3.78-.77h0c0,.1,0,0,.05,0s-.06.09,0,0,0-.1-.08,0Zm0,1.19h0c0,.1,0,0,.05,0s-.06.09,0,0-.05-.09-.08,0Zm-1.48.23h0c0,.1,0,0,0,0s-.06.09,0,0,0-.1-.08,0Zm-3.49.09h0c-.12,0,0,0,0,0s0-.07,0,0Zm-1.22.12h0c-.13,0,0,.05,0,.05s0-.08,0-.05Zm6.75-.64h0c-.13,0,.05.05.05.05s0-.07-.05-.05ZM35,55.52h0c-.12,0,.05,0,.05,0s0-.08-.05,0Zm.49-3.21h0c-.13,0,0,0,0,0s0-.07,0,0ZM34.29,53.4h0c-.13,0,0,.06,0,.06s0-.08,0-.06Zm-.4.76h0c-.13,0,0,.05,0,.05s0-.07,0-.05Zm1.68-1.08h0c-.13,0,0,.05,0,.05s0-.08,0-.05Zm-6,.89h0c-.13,0,.05.05.05.05s0-.07-.05-.05Zm1.63-1.11h0c-.13,0,0,0,.05,0s0-.07-.05,0Zm-2.55.9h0c0,.12.06,0,.06,0s0-.16-.06,0Zm3.45-.4h0c-.09.11,0,0,.08,0s0-.07-.08,0Zm1.44.58h0c.05.06-.06.05.06,0s0,0,.09-.08c-.11,0,0,0-.12,0s0,0,0,.06Zm3.53-1L37,53c.16,0,.07.05.2,0l-.15-.07Zm3.55-1.22-.05.1.14,0c.09,0,.06,0,.12,0l-.21-.1Zm-9.09,1.38-.05.1.16.07.05-.09-.16-.08Zm4.72,0,0,.1.15.07,0-.09-.15-.08Zm1.3-.85h0c-.16,0-.08,0-.18.09l.15.08a.38.38,0,0,0,0-.17Zm-1-.12-.07.15c.17,0,.11.05.23-.07l-.16-.08ZM40,54.36h0c-.06.13,0,.13.08.21l.08-.14L40,54.36Zm-2.94-1.75h0c0,.16.16.1.25,0-.25-.09-.06-.09-.25,0ZM33.2,54.24h0c-.21-.05-.14-.06-.26.11.28,0,.11.1.26-.11Zm-.61.53h0c-.21,0-.14-.06-.26.12.21,0,.14.06.26-.12Zm4.12-.31h0c-.16.11-.16.14,0,.26,0-.18,0-.11,0-.26Zm-.47-1.06h0c.06.45.09.25.13.24s0-.18-.13-.24Zm.5-.94h0a.31.31,0,0,0-.05.21c.14,0,0,0,.18,0l.07-.14-.2-.1Zm-1.25,1.11h0c0,.08,0,.13.11.17s.14-.05.2-.14c-.27-.12-.12-.11-.31,0Zm-5,1.28h0c-.12-.06-.17.08-.23.18.2.1.11.07.28.08s.13-.18-.05-.26Zm.91-.63h0c0-.18,0,0,0-.16a.46.46,0,0,0-.11-.36c-.52-.64-.71-.24-.95-.07s-.28,0-.48.2a2.45,2.45,0,0,0,1.29.27c.23.11-.09.11.25.12Zm12.9-1.45h0ZM45,51.26h0Zm-2.18,2.15s0,0,0,0h0Zm.93.33h0s0,0,0,0Zm4.13-2c-.07.12.07,0,0,0s0-.14,0,0Zm-4.28-.12c-.07.12.07,0,0,0s0-.15,0,0ZM53.8,48.05c0,.06.06.16.08,0s.13.06,0,0,0-.1-.07,0Zm-5.23,4c.21,0,.17,0,.07-.14l-.07.14Zm-4.09-1.8c-.1,0-.22-.07-.18.05s.11,0,.17-.05Zm8.14-.32c.2,0,.08,0,.25-.12-.22-.08-.25-.07-.25.12Zm-4.41,2c.13,0,0,0,.16,0a.88.88,0,0,0,.17-.12c-.21,0-.19,0-.33.14Zm-2.6-1.32c.1.13.07.09.28.19,0-.12.06-.14-.08-.21s-.15-.05-.21,0Zm1.81,2.06.2.1.16-.15c-.13-.11-.08-.1-.18-.16s-.18.15-.18.21ZM45.79,51l0,.1c.13.17.23.34.67.21.7-.2.53-.77-.23-.63a.71.71,0,0,0-.39.32ZM69.12,32h0s0,0,0,0v0Zm-5.28,7.34h0s0,0,0,0h0v0ZM53.21,49.55h0s0,0,0,0h0s0,0,0,0Zm-6.54-.27h0v0h0s0,0,0,0Zm15.72-8.47h0c-.07.13,0,0,0,0s0-.13,0,0Zm-.5-1.49h0c-.06.09.08,0,.08,0s0,0,0,0-.06,0-.07,0Zm1.35,1.84h0c-.05.1,0,0,0,0s-.06.09,0,0,0-.09-.08,0ZM50.85,46.8h0c-.05.1,0,0,0,0s-.06.09,0,0,0-.09-.08,0Zm.23,2.72h0c0,.1,0,0,.05,0s-.06.09,0,0,0-.09-.08,0ZM44.2,50.75h0c-.05.1,0,0,0,0s0,.09,0,0-.05-.09-.08,0Zm3.93-2h0c-.13,0,0,.06,0,.06s0-.08,0-.06Zm15.74-9h0c-.13,0,0,.06,0,.06s0-.08,0-.06Zm-.72-.23h0c-.13,0,0,.06,0,.06s0-.08,0-.06Zm.11-1.9h0c-.13,0,0,0,0,0s0-.07,0,0Zm-7.72,6.84h0c-.07.13,0,.1,0,.19,0-.15,0-.06,0-.19Zm4.82-2.14h0c0-.2,0-.16-.16-.07l.16.07Zm3.42-3.73-.08.14c.15,0,.07,0,.18-.1l-.1,0Zm.08,2.88h0c0,.06-.07,0,.06,0s0,0,.09-.07c-.3-.07-.15,0-.15,0Zm.61-3.2h0c0,.06-.07.05.06,0s0,0,.09-.08c-.3-.06-.15,0-.15,0ZM52.08,46.8h0c0,.19,0,.17.1.29,0-.21.09-.13-.1-.29Zm7.68-5.67h0c.05-.24,0-.28-.21-.1l.21.1Zm1.05.1h0c0,.24.06.08.23.29,0-.13.06-.08,0-.19a.64.64,0,0,0-.18-.1ZM45.46,50.71h0c-.05.08,0,.11.1.17l.13-.24c-.13,0-.16-.06-.23.07Zm20.83-15L66,35.58h0c-.2-.06-.12,0-.23,0,.2.08.22.05.49.17l.05-.09ZM52.07,46.09h0c0,.32.29.32.29.08s0-.1-.16-.2c-.07.08-.05.07-.13.12Zm9.79-4.41h0c.22.13.26.3.44,0a1.13,1.13,0,0,0-.24-.17c-.1,0-.14.05-.2.14Zm-2.15-.1c.06.3.4.37.62.42-.08-.39-.46-.35-.62-.42Zm0,.43c-.09.2-.08.06,0,.21s.42.36.52.45c.1-.25.09-.05-.07-.3a.54.54,0,0,1-.09-.25,2.12,2.12,0,0,1-.33-.11Zm-5.4,3.22h0s-.06.13.08,0c.19.16,0,.14.21.22s.31-.5.07-.62-.36.42-.36.42Zm13.4-8.6h0s0,0,0,0Zm.34.1h0s0,0,0,0Zm-3,2h0Zm-.88,1.53h0s0,0,0,0Zm.78-1.7h0Zm3.35-6h0s0,0,0,0Zm.92.33s0,0,0,0h0Zm-.53.51c-.06.12.08,0,0,0s0-.15,0,0Zm-1.56,3c0,.05.06.16.08,0s.13.06,0,0,0-.11-.06,0Zm2.42-1c0,.07.23,0,.08,0s-.12-.12-.08,0Zm0-.5c0,.07.22,0,.07,0s-.12-.12-.07,0Zm-1.63-1.09c0,.08.23,0,.08,0,0,0-.12-.13-.08,0ZM66,39.16c0,.08.22,0,.07,0,0,0-.11-.13-.07,0Zm-.66-1.68c0,.06.06.16.07,0s0-.18-.07,0ZM65,39.78c.17,0,.11.06.23-.06-.14,0-.16-.07-.23.06Zm4.21-6.2c.25.1.07.1.26,0-.07-.09-.05-.07-.18-.15l-.08.14ZM66,37.16c.11.13,0,.07.23.17l.08-.14c-.14-.06-.23-.13-.31,0Zm-.29,1c.23,0,.21,0,.38-.11-.24-.09-.23-.06-.39.11Zm-.41.28c.15.06.2.1.28,0s0-.16-.13-.24l-.15.28ZM64.47,40l0,.22a1.58,1.58,0,0,0,.43.15c.08-.38-.39-.37-.39-.37Zm3.41-4.57c.17,0,.13,0,.29,0,.35-.11.28-.23.27-.3a.92.92,0,0,0-.31.07c-.19.07-.13,0-.25.25Zm-.27,1h0c-.08.16.31.25.56-.21A.5.5,0,0,0,67.61,36.39Z"/><path class="cls-3" d="M12.27,10.64c-3.68-3-7.08.86-1.77.45C11.51,11,12.82,11.09,12.27,10.64Z"/><path class="cls-3" d="M11.4,18c-4.2-2.28-6.81,2.1-1.65.75C10.73,18.51,12,18.35,11.4,18Z"/><path class="cls-3" d="M12.2,25c-4.72-1-5.86,3.94-1.34,1.19C11.71,25.67,12.91,25.15,12.2,25Z"/><path class="cls-3" d="M13.78,32.59C9,33,9.38,38,12.86,34.1,13.52,33.37,14.51,32.53,13.78,32.59Z"/><path class="cls-3" d="M18.7,38.33c-4.66,1.3-3.23,6.12-.6,1.66C18.6,39.14,19.4,38.14,18.7,38.33Z"/><path class="cls-3" d="M25.87,42c-3.75,3-.42,6.83.14,1.74C26.11,42.76,26.43,41.54,25.87,42Z"/><path class="cls-3" d="M34,42.93c-2.38,4.06,2.19,6.49.79,1.57C34.5,43.57,34.34,42.32,34,42.93Z"/><path class="cls-3" d="M40.85,41.6C39.51,46.07,44.55,47.42,42,43,41.51,42.11,41.05,40.93,40.85,41.6Z"/><path class="cls-3" d="M46.52,38.67c.81,4.57,6,3.69,1.65.74C47.35,38.85,46.4,38,46.52,38.67Z"/><path class="cls-3" d="M52.71,34.32c.8,4.57,6,3.69,1.64.73C53.54,34.49,52.59,33.63,52.71,34.32Z"/><path class="cls-3" d="M58.2,29.94c1.72,4.32,6.62,2.49,1.77.41C59.05,30,57.94,29.29,58.2,29.94Z"/><path class="cls-3" d="M20.23,25c-4.71-1.3-6.31,3.43-1.48,1.06C19.67,25.56,20.93,25.14,20.23,25Z"/><path class="cls-3" d="M24.7,30c-4.67,1.29-3.23,6.12-.6,1.65C24.6,30.77,25.4,29.76,24.7,30Z"/><path class="cls-3" d="M31.87,33.6c-3.75,3-.42,6.83.14,1.74C32.11,34.38,32.43,33.16,31.87,33.6Z"/><path class="cls-3" d="M40,34.55c-2.38,4.07,2.19,6.49.79,1.57C40.5,35.19,40.34,33.94,40,34.55Z"/><path class="cls-3" d="M27.49,15.22c-4.69-1.38-6.37,3.33-1.49,1C26.92,15.82,28.19,15.42,27.49,15.22Z"/><path class="cls-3" d="M30.16,20.75c-4.66,1.3-3.23,6.12-.6,1.65C30.06,21.56,30.86,20.56,30.16,20.75Z"/><path class="cls-3" d="M37.33,24.4c-3.75,3-.42,6.83.14,1.74C37.58,25.18,37.9,24,37.33,24.4Z"/><path class="cls-3" d="M44.35,25.78c.18,4.69,5.36,4.69,1.51,1C45.13,26.1,44.32,25.07,44.35,25.78Z"/><path class="cls-3" d="M20.87,19.05c-4.71-1.3-6.3,3.44-1.47,1.07C20.31,19.67,21.57,19.25,20.87,19.05Z"/></g></g></svg>