<svg xmlns="http://www.w3.org/2000/svg" viewBox="0 0 226.92 326.93"><defs><style>.cls-1{fill:#ff6c6f;}</style></defs><title>nav_logo</title><g id="Layer_2" data-name="Layer 2"><g id="Layer_1-2" data-name="Layer 1"><path class="cls-1" d="M72.07,161.89A56.71,56.71,0,0,1,77.66,154a96,96,0,0,1,6.53-7.16,132.27,132.27,0,0,1,14.7-12.65,181.46,181.46,0,0,1,33.48-19.54,228.62,228.62,0,0,1,36.46-12.89,248.56,248.56,0,0,1,37.87-6.9l2.85-.29.79,2.29,3.58,10.32,3.45,10.38c1.17,3.45,2.23,6.94,3.34,10.42s2.15,7,3.17,10.49c-1.75-3.22-3.47-6.44-5.13-9.69s-3.36-6.48-4.95-9.75l-4.85-9.8-4.73-9.85,3.65,2c-12.22,3.12-24.29,6.49-36.19,10.24s-23.66,7.87-35.11,12.68c-2.88,1.17-5.71,2.45-8.56,3.67s-5.65,2.57-8.45,3.93c-5.58,2.72-11.12,5.55-16.53,8.62-10.8,6.18-21.42,12.86-31,21.35"/><path class="cls-1" d="M75.65,170.15q3.6,6.73,7,13.55t6.73,13.65l-3.93-.84a227.38,227.38,0,0,1,27.37-25.76,254,254,0,0,1,31-21.33q8.16-4.72,16.71-8.79c5.71-2.65,11.55-5.06,17.51-7.15a152.24,152.24,0,0,1,18.21-5.07,108.67,108.67,0,0,1,18.71-2.2c-5.88,2.19-11.62,4.41-17.26,6.81s-11.14,5-16.59,7.75c-10.87,5.5-21.43,11.49-31.81,17.83s-20.55,13.06-30.6,20S98.62,192.7,88.83,200l-2.91,2.18-1-3q-2.44-7.2-4.76-14.46c-1.55-4.84-3.06-9.7-4.48-14.59"/><path class="cls-1" d="M207.28,98.14a30.28,30.28,0,0,1,.59-8.54c.51-2.82,1.16-5.61,1.93-8.37s1.66-5.5,2.68-8.2c.51-1.36,1.06-2.7,1.71-4,.15-.34.33-.67.51-1s.38-.68.52-1l.91-1.88a39.84,39.84,0,0,0,4.27-15.36,24.43,24.43,0,0,0-3.75-14.21,39,39,0,0,0-4.67-6,59.69,59.69,0,0,0-5.8-5.29,57.1,57.1,0,0,0-13.42-7.91,77.29,77.29,0,0,0-31-5.56,95,95,0,0,0-16,1.66A108.65,108.65,0,0,0,130,16.54a114.06,114.06,0,0,0-29.09,15,35.06,35.06,0,0,0-5.73,5.41,70.47,70.47,0,0,0-5,6.47,71.2,71.2,0,0,0-7.76,14.57,56.48,56.48,0,0,0-3.8,16.13,43.63,43.63,0,0,0,2,16.65A41.46,41.46,0,0,1,76.57,74a56.07,56.07,0,0,1,2.3-17.3A75.5,75.5,0,0,1,85.76,40.6a68.47,68.47,0,0,1,4.88-7.4,44,44,0,0,1,6.18-6.76,102.79,102.79,0,0,1,14-10.73,104.52,104.52,0,0,1,15.78-8.13,101,101,0,0,1,17-5.33A93.41,93.41,0,0,1,161.48,0,79.27,79.27,0,0,1,196.94,7a61.11,61.11,0,0,1,15.35,10.18A49.63,49.63,0,0,1,223.7,31.75a31.45,31.45,0,0,1,2.9,9.17,29.06,29.06,0,0,1-.14,9.54c-1.07,6.22-4,11.65-7.29,16.45-.4.61-.86,1.18-1.3,1.76a16.45,16.45,0,0,0-1.12,1.69c-.7,1.17-1.34,2.41-1.94,3.67-1.22,2.52-2.31,5.12-3.31,7.76s-1.95,5.3-2.73,8c-.38,1.36-.73,2.73-1,4.12a19.76,19.76,0,0,0-.48,4.21"/><path class="cls-1" d="M84.73,47.72a14.77,14.77,0,0,1-4.32,6.83,45,45,0,0,1-6.47,5c-4.52,3-9.27,5.5-13.83,8.21S51,73.11,46.74,76.11a103.22,103.22,0,0,0-12,9.75A76.31,76.31,0,0,0,17.39,110.5,97.5,97.5,0,0,0,10,139.89a79,79,0,0,0,2.65,29.78C15.46,179.14,20.55,188,28,194.18a32.56,32.56,0,0,0,27.26,7.06,44.2,44.2,0,0,0,14.25-5.46,76.55,76.55,0,0,0,12.73-9.42,73.71,73.71,0,0,1-5.14,6.22,61.92,61.92,0,0,1-6,5.53A45.55,45.55,0,0,1,56.49,206a37.5,37.5,0,0,1-17.14,1.19,38.92,38.92,0,0,1-16-6.83,49.23,49.23,0,0,1-12-12.49,62.73,62.73,0,0,1-7.49-15.43A73.89,73.89,0,0,1,.37,155.83,85.55,85.55,0,0,1,.47,139a102.63,102.63,0,0,1,3.06-16.44,88.46,88.46,0,0,1,5.83-15.75,78.29,78.29,0,0,1,8.9-14.31A80,80,0,0,1,30,80.46C38.5,73.3,48.31,68.17,58.1,63.82c4.93-2.16,9.84-4.21,14.62-6.43a48.66,48.66,0,0,0,6.83-3.87,14.89,14.89,0,0,0,5.18-5.8"/><path class="cls-1" d="M53.56,184.24a14.87,14.87,0,0,0,3-2.43l.67-.66.63-.72A18.61,18.61,0,0,0,59,179a45.35,45.35,0,0,0,4.09-6.31A88.28,88.28,0,0,0,69,158.83l1.18-3.58c.37-1.2.69-2.42,1-3.63.72-2.41,1.29-4.87,1.88-7.33s1.09-4.93,1.62-7.41,1.06-5.14,1.77-7.74a56,56,0,0,1,6.53-15c.72-1.17,1.57-2.28,2.38-3.41a40.53,40.53,0,0,1,2.71-3.15,38.68,38.68,0,0,1,6.27-5.45,39.9,39.9,0,0,1,15-6.44,38.77,38.77,0,0,1,15.8-.09c-10.34.92-20,4.69-27.28,11a38.54,38.54,0,0,0-5,5.17c-.78.9-1.43,1.91-2.14,2.86s-1.32,2-1.89,3a58.89,58.89,0,0,0-5.43,13.42c-1.24,4.58-2.23,10-3.73,15-.76,2.53-1.48,5.07-2.46,7.54-.46,1.24-.88,2.49-1.39,3.72l-1.6,3.64A67.3,67.3,0,0,1,66,174.62c-.9,1-1.69,2.07-2.66,3L62,179.05c-.49.46-1,.88-1.52,1.31a19,19,0,0,1-6.89,3.88"/><path class="cls-1" d="M185.45,235.64q-10.83,5.06-20.55,3.55t-13.27-9.09q-4.47-9.57,3.52-25c.94-1.76,1.77-2.8,2.5-3.14s1.19-.26,1.42.21c.56,1.21,0,2.62-1.54,4.24q-6.33,12.86-2.44,21.15c1.85,4,5.22,6.47,10.09,7.5s10,.26,15.44-2.26q17.7-8.26,25.48-32.57a32.35,32.35,0,0,0-1.4-24.2Q199.3,164.52,188,163q-9.59-1.68-21.86,4-17.7,8.27-31.44,25.46-17.06,20.94-24.34,51.72t2.41,51.55q7.67,16.42,23,20.14t32-4.05a90.21,90.21,0,0,0,32.89-26.57,93.4,93.4,0,0,0,15.42-29.63c.91-3.07,1.91-4.85,3-5.36.72-.34,1.38.13,2,1.39a6.27,6.27,0,0,1-.17,4.81q-4.86,14.58-18.52,32.4-16.74,22.1-39.21,32.6t-40.41.83q-12-6.29-18.27-19.83A69,69,0,0,1,100,289Q94,263.59,104.6,232.05A116.77,116.77,0,0,1,128.75,191q16.49-18.36,34.91-27a60.5,60.5,0,0,1,18.07-5.58q22.53-3,31.22,15.54a33.54,33.54,0,0,1,2.51,22.8Q208.38,224.94,185.45,235.64Z"/></g></g></svg>